<?xml version="1.0" standalone="no"?>
<!DOCTYPE svg PUBLIC "-//W3C//DTD SVG 20010904//EN"
 "http://www.w3.org/TR/2001/REC-SVG-20010904/DTD/svg10.dtd">
<svg version="1.0" xmlns="http://www.w3.org/2000/svg"
 width="808.000000pt" height="808.000000pt" viewBox="0 0 808.000000 808.000000"
 preserveAspectRatio="xMidYMid meet">
<metadata>
Created by potrace 1.14, written by Peter Selinger 2001-2017
</metadata>
<g transform="translate(0.000000,808.000000) scale(0.100000,-0.100000)"
fill="#000000" stroke="none">
<path d="M40 4040 l0 -4000 4020 0 4020 0 0 4000 0 4000 -4020 0 -4020 0 0
-4000z m5139 1545 c56 -20 193 -74 304 -121 284 -121 508 -209 602 -235 71
-20 101 -37 260 -149 99 -69 225 -157 279 -195 274 -189 513 -442 623 -659 60
-118 103 -268 122 -422 8 -64 7 -91 -4 -129 -8 -26 -15 -70 -15 -97 0 -43 -7
-60 -57 -135 -74 -113 -185 -245 -265 -314 -307 -269 -676 -474 -1313 -728
-126 -51 -312 -129 -412 -173 l-183 -80 -46 16 c-102 35 -159 81 -217 179 -54
89 -74 178 -103 451 l-6 59 -23 -56 c-59 -145 -162 -250 -332 -336 -60 -31
-61 -31 -229 -31 -264 0 -429 25 -643 97 -34 11 -59 27 -69 43 -26 41 -43 50
-102 50 -68 0 -105 18 -265 127 -202 138 -376 287 -456 391 -17 22 -39 36 -65
42 -36 9 -44 6 -91 -26 -97 -66 -202 -190 -361 -425 -250 -370 -352 -484 -506
-565 -52 -27 -57 -28 -103 -16 -26 7 -80 35 -120 62 -39 28 -82 54 -96 59 -18
7 -26 19 -31 52 -4 23 -29 90 -56 148 -61 133 -66 151 -46 189 9 17 16 33 16
36 0 2 -20 17 -45 33 -32 19 -43 32 -39 43 15 33 15 78 0 114 -22 53 -20 80
10 132 23 40 25 48 14 69 -11 20 -11 27 0 40 7 8 19 15 26 15 21 0 31 34 44
145 25 229 103 485 300 985 123 313 186 495 221 640 17 71 30 105 55 135 17
22 73 124 123 227 96 197 157 281 234 323 l35 18 109 -36 c59 -21 123 -37 140
-37 27 0 35 -7 62 -55 l31 -54 48 6 c48 5 49 5 90 -43 55 -63 105 -163 122
-242 20 -96 2 -163 -60 -223 -46 -46 -60 -75 -63 -134 -1 -19 -21 -55 -51 -95
-81 -109 -141 -253 -153 -364 l-6 -61 49 45 c76 71 177 148 324 250 74 52 206
148 294 214 267 204 336 253 476 341 74 46 149 93 165 105 33 22 85 26 116 10
24 -13 27 11 4 30 -28 23 -16 35 73 73 48 21 109 48 136 60 l48 22 67 -72 c68
-73 95 -93 129 -93 12 0 30 -17 46 -43 15 -23 44 -53 64 -67 62 -42 124 -103
138 -137 23 -53 17 -94 -24 -174 -21 -41 -41 -83 -44 -95 -6 -24 -137 -132
-253 -208 -44 -29 -175 -109 -291 -179 -245 -147 -346 -216 -429 -296 -33 -32
-90 -79 -127 -105 -37 -26 -85 -67 -107 -92 -21 -24 -47 -44 -58 -44 -11 0
-46 -25 -78 -55 -67 -64 -67 -70 -4 -170 63 -99 153 -177 272 -234 189 -90
301 -110 675 -118 l283 -6 6 23 c14 52 125 -9 285 -157 61 -57 114 -103 117
-103 14 0 41 60 49 111 5 30 31 122 57 204 48 154 85 307 85 360 0 19 11 40
30 60 27 27 31 41 40 125 25 239 2 526 -67 838 -21 95 -23 124 -16 190 l8 77
49 3 49 3 -6 47 c-3 26 -22 99 -42 162 -40 126 -40 124 -1 270 28 101 54 170
67 170 4 0 53 -16 108 -35z"/>
<path d="M5525 4740 c-4 -6 5 -59 19 -118 101 -425 109 -793 26 -1283 -11 -64
-20 -124 -20 -133 0 -24 44 -20 115 10 160 67 207 85 248 90 36 5 56 17 98 56
44 40 82 62 199 112 80 34 181 81 223 106 160 91 287 213 352 338 l27 52 -25
39 c-14 21 -58 67 -98 102 -147 130 -213 195 -244 245 -30 45 -39 51 -85 62
-28 7 -99 39 -157 72 -114 66 -191 100 -227 100 -13 0 -54 14 -92 31 -38 18
-109 45 -158 61 -49 16 -101 37 -116 48 -30 22 -75 26 -85 10z"/>
</g>
</svg>
