<svg width="70" height="70" viewBox="0 0 70 70" fill="none" xmlns="http://www.w3.org/2000/svg">
<path d="M0 35C0 15.67 15.67 0 35 0C54.33 0 70 15.67 70 35C70 54.33 54.33 70 35 70C15.67 70 0 54.33 0 35Z" fill="#F04037" fill-opacity="0.1"/>
<path d="M27.5033 15H31.8V16.7967H29.3V18.5933H31.8V20.39H27.5033V15ZM32.6583 15H36.9567V16.5633H34.4567V16.875H36.9567V20.4683H32.6583V18.8283H35.1583V18.515H32.6583V15ZM37.8167 15H42.1117V16.5633H39.6117V16.875H42.1117V20.4683H37.8167V18.8283H40.3167V18.515H37.8167V15Z" fill="#F04037"/>
<path fill-rule="evenodd" clip-rule="evenodd" d="M34.985 55L23.4117 51.7867L20 22.8617H50L46.59 51.7834L34.985 55ZM26.745 35.955L27.0633 39.5017H39.3583L38.9467 44.1017L34.99 45.1717H34.9867L31.0367 44.105L30.7833 41.2767H27.2217L27.7183 46.8467L34.985 48.8634L42.2633 46.8467L43.15 36.9067L43.2367 35.955L43.8767 28.7734H26.1067L26.43 32.3217H39.99L39.6667 35.955H26.745Z" fill="#F04037"/>
</svg>
