<svg width="70" height="70" viewBox="0 0 70 70" fill="none" xmlns="http://www.w3.org/2000/svg">
<path d="M0 35C0 15.67 15.67 0 35 0C54.33 0 70 15.67 70 35C70 54.33 54.33 70 35 70C15.67 70 0 54.33 0 35Z" fill="#5454D4" fill-opacity="0.1"/>
<path d="M23.4667 15H25.27V16.7817H26.92V15H28.7233V20.3933H26.92V18.5883H25.27V20.3933H23.4683V15H23.4667ZM31.0933 16.7883H29.5067V15H34.485V16.7883H32.8967V20.3933H31.0933V16.7883ZM35.275 15H37.155L38.3117 16.895L39.4667 15H41.3467V20.3933H39.5517V17.72L38.3117 19.6383H38.28L37.0383 17.7217V20.3933H35.275V15ZM42.2433 15H44.0483V18.6117H46.5817V20.395H42.2433V15Z" fill="#5454D4"/>
<path fill-rule="evenodd" clip-rule="evenodd" d="M23.41 51.7867L20 22.8617H50L46.5883 51.7834L34.9833 55L23.41 51.7867ZM30.305 35.9534L29.9817 32.32H43.5567L43.8733 28.7734H26.1067L27.0633 39.5017H39.3583L38.9467 44.1017L34.99 45.1717H34.9867L31.0367 44.105L30.7833 41.2767H27.22L27.7167 46.8467L34.9833 48.8634L42.2617 46.8467L43.1483 36.9067L43.235 35.955H30.305V35.9534Z" fill="#5454D4"/>
</svg>
