<svg width="70" height="70" viewBox="0 0 70 70" fill="none" xmlns="http://www.w3.org/2000/svg">
<path d="M0 35C0 15.67 15.67 0 35 0C54.33 0 70 15.67 70 35C70 54.33 54.33 70 35 70C15.67 70 0 54.33 0 35Z" fill="#FEDC5A" fill-opacity="0.1"/>
<path fill-rule="evenodd" clip-rule="evenodd" d="M15 15H55V55H15V15ZM45.5783 48.5333C43.7233 48.5333 42.675 47.5667 41.87 46.25L38.815 48.025C39.9183 50.205 42.1733 51.8683 45.665 51.8683C49.235 51.8683 51.8933 50.015 51.8933 46.63C51.8933 43.4917 50.09 42.0967 46.8967 40.725L45.9567 40.3233C44.3433 39.6233 43.645 39.1683 43.645 38.04C43.645 37.1283 44.345 36.43 45.445 36.43C46.5233 36.43 47.2183 36.885 47.8633 38.04L50.79 36.1617C49.5517 33.9833 47.835 33.1517 45.445 33.1517C42.0883 33.1517 39.94 35.2983 39.94 38.1183C39.94 41.1767 41.74 42.625 44.4533 43.78L45.3933 44.1833C47.1083 44.9333 48.13 45.39 48.13 46.6783C48.13 47.755 47.135 48.5333 45.5783 48.5333ZM31.0117 48.5083C29.72 48.5083 29.1817 47.625 28.5917 46.575L25.5317 48.4283C26.4183 50.305 28.1617 51.8617 31.17 51.8617C34.5017 51.8617 36.7833 50.09 36.7833 46.1983V33.365H33.025V46.1483C33.025 48.0267 32.245 48.5083 31.01 48.5083H31.0117Z" fill="#FEDC5A"/>
</svg>
