<svg width="70" height="70" viewBox="0 0 70 70" fill="none" xmlns="http://www.w3.org/2000/svg">
<path d="M0 35C0 15.67 15.67 0 35 0C54.33 0 70 15.67 70 35C70 54.33 54.33 70 35 70C15.67 70 0 54.33 0 35Z" fill="#5454D4" fill-opacity="0.1"/>
<path d="M55 34.4816C55 31.8316 51.6817 29.32 46.5933 27.7633C47.7683 22.5783 47.2467 18.4516 44.9467 17.13C44.3894 16.8178 43.7586 16.6607 43.12 16.675V18.4916C43.495 18.4916 43.7967 18.5666 44.05 18.705C45.1583 19.3416 45.64 21.7616 45.265 24.8766C45.175 25.6433 45.0283 26.45 44.8483 27.2733C43.1444 26.8627 41.415 26.5659 39.6717 26.385C38.6331 24.9521 37.5 23.5902 36.28 22.3083C38.9383 19.8383 41.4333 18.485 43.13 18.485V16.6666C40.8867 16.6666 37.9517 18.265 34.9833 21.0366C32.0167 18.2833 29.08 16.7 26.8383 16.7V18.5166C28.5267 18.5166 31.03 19.8633 33.6883 22.3166C32.5467 23.5166 31.405 24.8766 30.32 26.385C28.5731 26.5639 26.8406 26.8635 25.135 27.2816C24.9547 26.5013 24.8129 25.7126 24.71 24.9183C24.3267 21.8016 24.8 19.3816 25.9017 18.7383C26.145 18.5916 26.4633 18.525 26.8383 18.525V16.7083C26.155 16.7083 25.5333 16.855 24.9967 17.1633C22.705 18.485 22.1917 22.6016 23.3733 27.7716C18.3017 29.3383 15 31.84 15 34.4816C15 37.1316 18.3183 39.6433 23.4067 41.1983C22.2317 46.385 22.7533 50.5116 25.0533 51.8316C25.5833 52.1416 26.2033 52.2883 26.8867 52.2883C29.13 52.2883 32.065 50.69 35.0333 47.9183C38 50.6733 40.935 52.255 43.1783 52.255C43.8218 52.2685 44.4574 52.111 45.02 51.7983C47.3117 50.4783 47.825 46.3616 46.6433 41.1916C51.6983 39.635 55 37.1233 55 34.4816ZM44.3833 29.0433C44.0666 30.1331 43.6996 31.2075 43.2833 32.2633C42.6019 30.9379 41.8538 29.6479 41.0417 28.3983C42.2 28.57 43.3167 28.7816 44.385 29.0433H44.3833ZM40.65 37.7266C40.0395 38.7924 39.3839 39.8317 38.685 40.8416C36.2388 41.0572 33.7784 41.06 31.3317 40.85C29.9282 38.8453 28.7009 36.7229 27.6633 34.5066C28.6993 32.2851 29.9214 30.1553 31.3167 28.14C33.7623 27.9239 36.2221 27.9206 38.6683 28.13C39.345 29.1 40.0067 30.1366 40.6417 31.23C41.2617 32.2966 41.825 33.38 42.3383 34.4733C41.8193 35.5799 41.2561 36.6652 40.65 37.7266ZM43.2833 36.6666C43.7233 37.7583 44.1 38.8516 44.4083 39.9116C43.3417 40.1733 42.215 40.3933 41.05 40.5633C41.8587 39.3023 42.6041 38.0018 43.2833 36.6666ZM35.0167 45.3666C34.2583 44.5833 33.5 43.7116 32.75 42.7566C33.4833 42.79 34.2333 42.815 34.9917 42.815C35.7583 42.815 36.5167 42.7983 37.2583 42.7566C36.525 43.7116 35.7667 44.5833 35.0167 45.3666ZM28.95 40.5633C27.8262 40.4005 26.7106 40.1858 25.6067 39.92C25.9083 38.8683 26.2833 37.7833 26.7067 36.7C27.0417 37.35 27.3933 38.0033 27.7767 38.6566C28.16 39.3083 28.55 39.945 28.95 40.5633ZM34.975 23.5966C35.7333 24.38 36.4917 25.2516 37.2417 26.2066C36.5083 26.1733 35.7583 26.1483 35 26.1483C34.2333 26.1483 33.475 26.165 32.7333 26.2066C33.4667 25.2516 34.225 24.38 34.975 23.5966ZM28.9417 28.4C28.1331 29.6582 27.3877 30.9559 26.7083 32.2883C26.2804 31.2257 25.9049 30.1427 25.5833 29.0433C26.65 28.79 27.7767 28.57 28.9417 28.4ZM21.5633 38.6066C18.6767 37.3766 16.81 35.7616 16.81 34.4816C16.81 33.2016 18.6767 31.5783 21.5633 30.3566C22.2633 30.055 23.03 29.785 23.8217 29.5333C24.2867 31.13 24.8983 32.7933 25.655 34.4983C24.9406 36.1019 24.3364 37.7524 23.8467 39.4383C23.0724 39.1986 22.3104 38.921 21.5633 38.6066ZM25.95 50.2566C24.8417 49.6233 24.36 47.2 24.735 44.0866C24.825 43.32 24.9717 42.5116 25.1517 41.6883C26.7483 42.08 28.4933 42.3816 30.3283 42.5783C31.367 44.0111 32.5 45.373 33.72 46.655C31.0617 49.125 28.5667 50.4783 26.87 50.4783C26.5499 50.4818 26.2339 50.4062 25.95 50.2583V50.2566ZM45.29 44.045C45.6733 47.16 45.2 49.5816 44.0983 50.225C43.855 50.3716 43.5367 50.4366 43.1617 50.4366C41.4733 50.4366 38.97 49.0916 36.3117 46.6366C37.5265 45.3601 38.652 44.0013 39.68 42.57C41.4269 42.391 43.1594 42.0914 44.865 41.6733C45.0533 42.4966 45.1983 43.2866 45.29 44.045ZM48.4283 38.6066C47.7283 38.9083 46.9617 39.1783 46.17 39.43C45.6716 37.7355 45.0591 36.0767 44.3367 34.465C45.0867 32.77 45.6883 31.115 46.145 29.525C46.9217 29.7655 47.6865 30.043 48.4367 30.3566C51.3233 31.5866 53.19 33.2016 53.19 34.4816C53.1817 35.7616 51.315 37.385 48.4283 38.6066Z" fill="#5454D4"/>
<path d="M34.9917 38.2083C35.9801 38.2083 36.9279 37.8157 37.6268 37.1168C38.3257 36.4179 38.7183 35.47 38.7183 34.4817C38.7183 33.4933 38.3257 32.5454 37.6268 31.8465C36.9279 31.1476 35.9801 30.755 34.9917 30.755C34.0033 30.755 33.0554 31.1476 32.3565 31.8465C31.6576 32.5454 31.265 33.4933 31.265 34.4817C31.265 35.47 31.6576 36.4179 32.3565 37.1168C33.0554 37.8157 34.0033 38.2083 34.9917 38.2083Z" fill="#5454D4"/>
</svg>
