<svg width="70" height="70" viewBox="0 0 70 70" fill="none" xmlns="http://www.w3.org/2000/svg">
<path d="M0 35C0 15.67 15.67 0 35 0C54.33 0 70 15.67 70 35C70 54.33 54.33 70 35 70C15.67 70 0 54.33 0 35Z" fill="#F04037" fill-opacity="0.1"/>
<path fill-rule="evenodd" clip-rule="evenodd" d="M35 17.5C38.4612 17.5 41.8446 18.5264 44.7225 20.4493C47.6003 22.3722 49.8434 25.1053 51.1679 28.303C52.4924 31.5007 52.839 35.0194 52.1637 38.4141C51.4885 41.8087 49.8218 44.9269 47.3744 47.3744C44.9269 49.8218 41.8087 51.4885 38.4141 52.1637C35.0194 52.839 31.5007 52.4924 28.303 51.1679C25.1053 49.8434 22.3722 47.6003 20.4493 44.7225C18.5264 41.8446 17.5 38.4612 17.5 35C17.5 30.3587 19.3437 25.9075 22.6256 22.6256C25.9075 19.3437 30.3587 17.5 35 17.5Z" fill="#F04037"/>
<path d="M45.9775 24.99C45.185 21.8825 40.0312 20.865 35.1537 22.5925C32.0991 23.619 29.2769 25.2378 26.8487 27.3563C24.1625 29.8688 23.7337 32.0563 23.91 32.97C24.535 36.195 28.9512 38.3025 30.7675 39.8663V39.875C30.2325 40.1388 26.3125 42.125 25.3925 44.15C24.425 46.29 25.5462 47.825 26.29 48.0313C27.4066 48.3001 28.5794 48.2126 29.6438 47.7811C30.7082 47.3495 31.6108 46.5956 32.225 45.625C32.7326 44.8387 33.0501 43.945 33.1525 43.0146C33.2549 42.0843 33.1394 41.1429 32.815 40.265C33.6898 40.0427 34.5992 39.9905 35.4937 40.1113C38.5637 40.47 39.1662 42.3863 39.0512 43.1888C38.9972 43.4744 38.8822 43.7451 38.7142 43.9823C38.5461 44.2196 38.329 44.4179 38.0775 44.5638C37.8625 44.6975 37.7962 44.7425 37.815 44.8425C37.8412 44.9863 37.94 44.9813 38.1237 44.95C38.5851 44.8047 38.9916 44.5231 39.2897 44.1422C39.5878 43.7613 39.7635 43.299 39.7937 42.8163C39.8675 40.9413 38.0662 38.8338 34.8762 38.8875C33.9497 38.8611 33.0252 38.9878 32.14 39.2625C32.0957 39.2119 32.0507 39.1619 32.005 39.1125C30.0325 37.0088 26.3875 35.52 26.5412 32.6913C26.5975 31.6625 26.955 28.955 33.5412 25.67C38.9412 22.9788 43.2637 23.72 44.0112 25.3613C45.0787 27.7063 41.7012 32.0625 36.0937 32.6913C35.474 32.8171 34.8338 32.8017 34.2208 32.6464C33.6077 32.491 33.0375 32.1996 32.5525 31.7938C32.2575 31.4688 32.2137 31.455 32.1037 31.515C31.925 31.6138 32.0387 31.9013 32.1037 32.0713C32.3185 32.4582 32.6083 32.7984 32.9562 33.0719C33.3042 33.3454 33.7032 33.5466 34.13 33.6638C36.3347 34.1428 38.6343 33.9154 40.7025 33.0138C44.1037 31.7025 46.7562 28.0463 45.9775 24.99ZM31.5225 40.8288C31.7708 41.6846 31.7581 42.5951 31.4862 43.4438C31.4571 43.5321 31.425 43.6196 31.39 43.7063C31.355 43.7929 31.3171 43.8763 31.2762 43.9563C31.0659 44.3867 30.7934 44.7838 30.4675 45.135C29.4512 46.2438 28.03 46.6638 27.4212 46.31C26.7637 45.9288 27.0925 44.365 28.2712 43.1188C29.177 42.2231 30.2212 41.4794 31.3637 40.9163L31.5225 40.8288Z" fill="#19191B"/>
</svg>
