<svg width="70" height="70" viewBox="0 0 70 70" fill="none" xmlns="http://www.w3.org/2000/svg">
<path d="M0 35C0 15.67 15.67 0 35 0C54.33 0 70 15.67 70 35C70 54.33 54.33 70 35 70C15.67 70 0 54.33 0 35Z" fill="#FEDC5A" fill-opacity="0.1"/>
<path d="M15 35V55H55V15H15V35ZM47.2325 33.405C48.1914 33.6308 49.0629 34.1332 49.7388 34.85C50.1038 35.24 50.65 35.9562 50.6963 36.1325C50.7087 36.185 48.9712 37.35 47.9163 38.0012C47.8775 38.0275 47.7212 37.865 47.5513 37.61C47.0375 36.8612 46.4962 36.5362 45.67 36.4775C44.4587 36.3987 43.6775 37.0313 43.6838 38.0925C43.6774 38.3522 43.7354 38.6094 43.8525 38.8412C44.12 39.395 44.6213 39.7263 46.17 40.3975C49.035 41.6275 50.2588 42.4412 51.02 43.5938C51.8725 44.8825 52.0612 46.94 51.4888 48.4762C50.8512 50.1362 49.275 51.2687 47.0612 51.64C46.3775 51.7638 44.75 51.7437 44.0138 51.6075C42.4062 51.3213 40.8825 50.5262 39.945 49.485C39.5737 49.0812 38.8575 48.02 38.9037 47.9487C38.9237 47.9225 39.0863 47.8187 39.2688 47.7137L40.7537 46.8538L41.9062 46.1838L42.1475 46.5413C42.4862 47.055 43.2212 47.7587 43.665 47.9925C44.9412 48.67 46.6925 48.5725 47.5588 47.7975C47.91 47.505 48.1063 47.055 48.08 46.6C48.08 46.1375 48.0213 45.93 47.78 45.5837C47.4675 45.1412 46.8362 44.7638 45.0325 43.9825C42.9687 43.09 42.0763 42.5438 41.27 41.665C40.7625 41.0866 40.3871 40.4045 40.17 39.6663C40.02 39.1 39.9813 37.68 40.0988 37.1138C40.5225 35.115 42.0325 33.7288 44.2 33.3188C44.9038 33.1825 46.5438 33.2337 47.2337 33.4037L47.2325 33.405ZM37.845 35.0788L37.8575 36.7125H32.6488V51.5112H28.9637V36.7125H23.7625V35.1113C23.7625 34.2188 23.7825 33.4775 23.8075 33.4575C23.8275 33.4312 26.9913 33.4187 30.8325 33.425L37.825 33.445L37.845 35.0788Z" fill="#FEDC5A"/>
</svg>
