<svg width="410" height="350" viewBox="0 0 410 350" fill="none" xmlns="http://www.w3.org/2000/svg">
<g opacity="0.5">
<path d="M25.1328 1.08105H1.65689C1.09232 1.08105 0.6362 1.52085 0.6362 2.06522V24.701C0.6362 25.2453 1.09232 25.6851 1.65689 25.6851H25.1328C25.6974 25.6851 26.1535 25.2453 26.1535 24.701V2.06522C26.1535 1.52085 25.6974 1.08105 25.1328 1.08105ZM13.4299 13.5707L7.30578 18.5223C7.13992 18.6576 6.88794 18.5438 6.88794 18.3347V16.4063C6.88794 16.3356 6.92302 16.2648 6.98044 16.2187L10.4827 13.3831L6.98044 10.5475C6.95112 10.5251 6.92752 10.4966 6.91148 10.4641C6.89544 10.4315 6.88739 10.3959 6.88794 10.3599V8.43152C6.88794 8.22239 7.13992 8.10859 7.30578 8.24391L13.4299 13.1924C13.5543 13.2908 13.5543 13.4723 13.4299 13.5707V13.5707ZM19.9018 18.3347C19.9018 18.47 19.7933 18.5807 19.6625 18.5807H13.7617C13.6309 18.5807 13.5224 18.47 13.5224 18.3347V16.8584C13.5224 16.7231 13.6309 16.6124 13.7617 16.6124H19.6625C19.7933 16.6124 19.9018 16.7231 19.9018 16.8584V18.3347Z" fill="#5454D4"/>
</g>
<rect x="-0.481881" y="-0.835031" width="261.35" height="251.823" rx="15.8514" transform="matrix(0.96861 0.248586 -0.269411 0.963025 102.51 0.0889139)" stroke="#5454D4" stroke-width="1.37838"/>
<rect x="-0.963763" y="-1.67006" width="262.729" height="253.202" rx="16.5406" transform="matrix(0.96861 0.248586 -0.269411 0.963025 122.431 44.1239)" fill="#212121" fill-opacity="0.8"/>
<g opacity="0.7">
<path d="M239.181 96.7566C239.279 96.6999 239.365 96.6245 239.434 96.5347C239.503 96.4448 239.554 96.3422 239.583 96.2328C239.612 96.1234 239.62 96.0093 239.605 95.897C239.59 95.7847 239.553 95.6764 239.497 95.5783C239.44 95.4802 239.365 95.3942 239.275 95.3253C239.185 95.2563 239.083 95.2057 238.973 95.1764C238.864 95.1471 238.75 95.1396 238.637 95.1544C238.525 95.1692 238.417 95.206 238.319 95.2626L230.933 99.5266C230.835 99.5831 230.749 99.6584 230.68 99.7483C230.611 99.8382 230.56 99.9407 230.531 100.05C230.502 100.16 230.494 100.274 230.509 100.386C230.524 100.498 230.561 100.607 230.617 100.705L234.881 108.09C234.996 108.288 235.184 108.433 235.405 108.492C235.626 108.551 235.862 108.52 236.06 108.406C236.258 108.292 236.402 108.103 236.462 107.882C236.521 107.661 236.49 107.426 236.375 107.228L232.541 100.589L239.181 96.7566V96.7566ZM246.324 98.6705C246.21 98.4723 246.179 98.2369 246.238 98.0159C246.297 97.795 246.442 97.6066 246.64 97.4922C246.838 97.3778 247.073 97.3468 247.294 97.406C247.515 97.4652 247.703 97.6098 247.818 97.8079L252.082 105.193C252.139 105.291 252.176 105.4 252.19 105.512C252.205 105.624 252.198 105.739 252.168 105.848C252.139 105.957 252.088 106.06 252.019 106.15C251.95 106.24 251.864 106.315 251.766 106.372L244.381 110.636C244.183 110.75 243.947 110.781 243.726 110.722C243.505 110.663 243.317 110.518 243.202 110.32C243.088 110.122 243.057 109.886 243.116 109.665C243.175 109.444 243.32 109.256 243.518 109.142L250.158 105.309L246.324 98.6705V98.6705Z" fill="white"/>
</g>
<path d="M173.364 136.86C172.964 136.344 172.675 135.756 172.499 135.095C172.341 134.44 172.252 133.766 172.233 133.074C172.232 132.386 172.287 131.695 172.399 131C172.532 130.293 172.691 129.63 172.876 129.01C173.157 128.584 173.462 128.211 173.789 127.89C174.121 127.552 174.473 127.246 174.843 126.974C175.218 126.684 175.594 126.423 175.972 126.19C176.373 125.944 176.764 125.696 177.147 125.446C177.251 125.474 177.339 125.525 177.412 125.6C177.533 125.428 177.681 125.292 177.856 125.19C178.032 125.089 178.212 125.007 178.396 124.944C178.584 124.865 178.771 124.794 178.954 124.732C179.143 124.652 179.31 124.549 179.456 124.42C179.917 124.433 180.338 124.387 180.718 124.285C181.116 124.187 181.501 124.067 181.873 123.926C182.246 123.784 182.622 123.662 183.003 123.56C183.383 123.457 183.804 123.412 184.265 123.424C184.467 123.293 184.697 123.196 184.955 123.135C185.23 123.079 185.495 123.029 185.748 122.985C186.018 122.946 186.274 122.894 186.514 122.829C186.772 122.768 186.998 122.652 187.193 122.481C187.259 122.647 187.393 122.739 187.593 122.755C187.797 122.754 187.985 122.749 188.155 122.739C188.263 122.749 188.345 122.79 188.401 122.86C188.456 122.931 188.5 123.008 188.534 123.091C188.589 123.162 188.632 123.21 188.662 123.237C188.709 123.268 188.775 123.23 188.86 123.123C188.994 123.177 189.012 123.247 188.915 123.333C188.835 123.423 188.782 123.483 188.755 123.513C188.938 123.524 189.067 123.596 189.143 123.728C189.241 123.847 189.407 123.957 189.641 124.056C189.704 124.166 189.711 124.243 189.663 124.285C189.614 124.328 189.565 124.408 189.515 124.524C190.088 124.882 190.405 125.292 190.467 125.755C190.534 126.2 190.437 126.629 190.178 127.043C189.923 127.439 189.554 127.776 189.071 128.055C188.609 128.322 188.137 128.455 187.654 128.456C187.079 128.451 186.539 128.455 186.034 128.468C185.546 128.486 185.063 128.523 184.583 128.581C184.12 128.643 183.666 128.744 183.22 128.884C182.795 129.012 182.403 129.195 182.042 129.432C181.519 129.441 181.026 129.513 180.563 129.649C180.116 129.789 179.68 129.961 179.255 130.162C178.847 130.369 178.442 130.595 178.042 130.841C177.647 131.069 177.251 131.297 176.855 131.526C176.776 131.82 176.664 132.032 176.518 132.16C176.373 132.288 176.218 132.414 176.055 132.537C176.001 132.876 175.994 133.18 176.033 133.451C176.094 133.709 176.153 133.975 176.209 134.25C177.484 135.038 178.879 135.69 180.394 136.208C181.93 136.712 183.459 137.178 184.98 137.604C185.08 137.853 185.2 138.099 185.339 138.341C185.501 138.57 185.634 138.801 185.739 139.033C185.861 139.27 185.931 139.53 185.948 139.814C185.987 140.084 185.934 140.386 185.789 140.718C185.415 140.934 185.018 141.134 184.597 141.319C184.181 141.486 183.765 141.653 183.348 141.82C183.188 141.795 182.997 141.744 182.776 141.667C182.573 141.594 182.35 141.525 182.107 141.459C181.882 141.399 181.643 141.354 181.391 141.323C181.161 141.28 180.931 141.274 180.7 141.305C179.617 140.978 178.534 140.548 177.45 140.017C176.371 139.467 175.391 138.898 174.508 138.309C174.378 138.032 174.235 137.771 174.078 137.525C173.925 137.261 173.688 137.039 173.364 136.86ZM203.862 139.096C203.789 139.3 203.753 139.504 203.754 139.708C203.755 139.913 203.764 140.12 203.783 140.329C203.823 140.526 203.852 140.728 203.87 140.938C203.888 141.147 203.889 141.352 203.873 141.551C203.843 141.803 203.771 142.072 203.657 142.357C203.548 142.625 203.413 142.886 203.252 143.141C203.096 143.377 202.918 143.59 202.719 143.778C202.525 143.949 202.318 144.061 202.1 144.114C201.773 144.361 201.414 144.524 201.021 144.605C200.628 144.685 200.251 144.807 199.892 144.971C199.668 145.041 199.429 145.07 199.172 145.057C198.933 145.048 198.685 145.038 198.428 145.025C198.21 145.078 197.954 145.13 197.662 145.181C197.374 145.216 197.077 145.248 196.772 145.277C196.472 145.29 196.176 145.285 195.884 145.263C195.598 145.223 195.353 145.167 195.15 145.093C194.579 145.145 194.035 145.129 193.518 145.046C193.014 144.986 192.452 144.798 191.83 144.483C191.183 144.402 190.609 144.221 190.109 143.938C189.626 143.66 189.216 143.318 188.879 142.912C188.564 142.493 188.307 142.034 188.106 141.534C187.928 141.022 187.806 140.506 187.74 139.987C187.866 138.962 188.14 138.079 188.562 137.337C188.988 136.579 189.482 135.912 190.045 135.338C190.629 134.752 191.249 134.24 191.905 133.803C192.566 133.348 193.204 132.906 193.821 132.477C193.916 132.54 193.994 132.56 194.055 132.54C194.138 132.506 194.215 132.462 194.286 132.407C194.361 132.334 194.434 132.27 194.504 132.214C194.592 132.164 194.682 132.141 194.773 132.147C194.964 131.92 195.189 131.775 195.446 131.714C195.726 131.641 195.968 131.501 196.172 131.296C196.337 131.303 196.481 131.286 196.603 131.244C196.726 131.203 196.842 131.15 196.952 131.087C197.079 131.028 197.204 130.978 197.327 130.936C197.454 130.878 197.592 130.85 197.74 130.852L197.816 130.566C198.165 130.511 198.432 130.415 198.617 130.279C198.825 130.13 199.067 129.954 199.345 129.75C199.505 129.774 199.629 129.798 199.716 129.821C199.82 129.849 199.971 129.871 200.171 129.888C200.375 129.682 200.545 129.533 200.682 129.439C200.836 129.35 201.044 129.267 201.306 129.188C201.486 129.348 201.693 129.478 201.926 129.578C202.177 129.682 202.372 129.855 202.512 130.097C202.483 130.275 202.497 130.427 202.556 130.554C202.62 130.664 202.692 130.776 202.773 130.891C202.858 130.988 202.932 131.092 202.996 131.202C203.077 131.316 203.113 131.456 203.106 131.621C203.171 131.657 203.217 131.66 203.243 131.63C203.287 131.605 203.342 131.61 203.406 131.646C203.393 131.903 203.41 132.083 203.456 132.189C203.507 132.277 203.537 132.442 203.545 132.686C203.412 132.836 203.294 133 203.191 133.177C203.11 133.341 202.971 133.443 202.775 133.483C202.725 133.6 202.741 133.678 202.823 133.719C202.91 133.742 202.95 133.799 202.944 133.891C202.92 134.051 202.863 134.157 202.776 134.208C203.01 134.995 203.19 135.814 203.315 136.665C203.445 137.499 203.627 138.309 203.862 139.096ZM199.95 140.695C200.071 140.523 200.199 140.391 200.336 140.297C200.49 140.208 200.608 140.045 200.69 139.807C200.641 139.645 200.616 139.527 200.618 139.453C200.624 139.362 200.65 139.23 200.696 139.056C200.459 138.417 200.283 137.757 200.168 137.076C200.058 136.377 199.901 135.713 199.699 135.083C199.646 135.143 199.566 135.196 199.461 135.242C199.356 135.288 199.265 135.245 199.189 135.114C199.117 135.243 199.029 135.331 198.923 135.377C198.823 135.406 198.721 135.406 198.617 135.378C198.517 135.333 198.412 135.277 198.3 135.21C198.209 135.13 198.13 135.044 198.062 134.951C197.453 135.215 196.846 135.47 196.241 135.717C195.636 135.964 195.067 136.285 194.534 136.681C194.455 136.697 194.407 136.702 194.39 136.698C194.377 136.676 194.323 136.67 194.227 136.682C194 136.974 193.745 137.231 193.463 137.453C193.203 137.661 192.94 137.879 192.675 138.105C192.41 138.331 192.167 138.582 191.944 138.857C191.722 139.132 191.547 139.475 191.418 139.886C191.647 140.208 191.955 140.448 192.339 140.607C192.724 140.765 193.129 140.883 193.554 140.96C193.997 141.041 194.427 141.101 194.844 141.138C195.283 141.163 195.676 141.222 196.023 141.315C196.797 141.337 197.481 141.279 198.076 141.141C198.675 140.985 199.3 140.837 199.95 140.695ZM209.956 144.017C209.79 144.01 209.652 144.075 209.541 144.213C209.434 144.333 209.326 144.461 209.215 144.599C209.121 144.741 209.021 144.872 208.914 144.992C208.83 145.099 208.727 145.137 208.605 145.104C208.551 145.238 208.466 145.346 208.352 145.427C208.255 145.512 208.155 145.606 208.053 145.709C207.956 145.794 207.872 145.902 207.8 146.031C207.733 146.143 207.71 146.295 207.733 146.487C207.567 146.554 207.441 146.678 207.355 146.859C207.269 147.041 207.177 147.211 207.079 147.37C206.998 147.534 206.889 147.663 206.752 147.757C206.616 147.85 206.411 147.851 206.139 147.759C206.068 147.815 206.048 147.856 206.078 147.882C206.108 147.909 206.117 147.977 206.107 148.085C205.926 147.999 205.776 147.969 205.658 147.993C205.553 148.039 205.428 148.052 205.285 148.032C204.984 147.84 204.755 147.584 204.6 147.263C204.461 146.948 204.347 146.611 204.257 146.252C204.19 145.881 204.131 145.512 204.08 145.146C204.047 144.784 204.002 144.466 203.946 144.19C204.049 144.014 204.107 143.834 204.118 143.651C204.135 143.451 204.116 143.279 204.062 143.135C205.394 141.56 206.837 139.884 208.39 138.108C209.943 136.333 211.438 134.569 212.873 132.817C213.23 133.08 213.571 133.366 213.897 133.677C214.244 133.974 214.539 134.295 214.781 134.638C215.041 134.986 215.237 135.364 215.37 135.771C215.507 136.161 215.554 136.573 215.512 137.007C215.449 137.102 215.395 137.134 215.347 137.103C215.322 137.059 215.285 137.058 215.236 137.101C215.282 137.206 215.301 137.276 215.291 137.311C215.299 137.35 215.29 137.384 215.264 137.415C215.254 137.449 215.24 137.501 215.222 137.571C215.208 137.623 215.213 137.707 215.237 137.825C215.172 137.789 215.118 137.784 215.074 137.81C215.047 137.84 214.995 137.826 214.918 137.768C214.936 137.977 214.912 138.138 214.845 138.25C214.795 138.366 214.73 138.47 214.65 138.56C214.575 138.633 214.504 138.725 214.437 138.837C214.374 138.932 214.346 139.073 214.351 139.26C214.299 139.246 214.251 139.252 214.207 139.277C214.185 139.29 214.161 139.311 214.134 139.341C214.112 139.354 214.079 139.373 214.035 139.398C214.013 139.411 213.979 139.402 213.931 139.37C213.881 139.766 213.796 140.152 213.677 140.528C213.557 140.905 213.436 141.29 213.311 141.684C213.209 142.065 213.109 142.475 213.01 142.913C212.916 143.334 212.86 143.783 212.844 144.262C213.565 144.065 214.185 143.729 214.702 143.255C215.236 142.785 215.711 142.225 216.127 141.575C216.56 140.929 216.947 140.215 217.286 139.433C217.626 138.651 217.979 137.854 218.345 137.042C218.543 136.928 218.715 136.77 218.862 136.568C219.009 136.365 219.15 136.152 219.284 135.928C219.423 135.687 219.56 135.454 219.694 135.23C219.833 134.989 219.983 134.778 220.142 134.598C220.393 134.702 220.586 134.847 220.723 135.032C220.881 135.204 221.017 135.389 221.131 135.587C221.25 135.768 221.377 135.95 221.514 136.136C221.654 136.303 221.85 136.439 222.101 136.544C222.23 136.894 222.344 137.231 222.443 137.555C222.542 137.879 222.576 138.203 222.544 138.529C222.42 138.645 222.309 138.782 222.211 138.942C222.13 139.106 222.04 139.267 221.941 139.427C221.843 139.586 221.729 139.732 221.601 139.865C221.477 139.98 221.323 140.069 221.14 140.131C220.967 140.568 220.786 140.966 220.597 141.324C220.43 141.669 220.255 142.012 220.071 142.353C219.904 142.698 219.741 143.063 219.582 143.448C219.428 143.815 219.297 144.235 219.189 144.708C218.943 145.069 218.682 145.455 218.405 145.863C218.129 146.272 217.898 146.647 217.714 146.988C217.376 147.139 217.088 147.349 216.848 147.62C216.609 147.89 216.36 148.158 216.103 148.423C216.016 148.474 215.968 148.48 215.96 148.44C215.951 148.401 215.898 148.359 215.798 148.314C215.797 148.388 215.783 148.44 215.757 148.47C215.73 148.5 215.695 148.527 215.651 148.553C215.629 148.565 215.602 148.595 215.571 148.643C215.557 148.695 215.556 148.769 215.567 148.865C215.297 148.904 215.041 148.993 214.799 149.132C214.557 149.272 214.303 149.39 214.036 149.485C213.786 149.585 213.498 149.62 213.172 149.588C212.863 149.561 212.49 149.396 212.051 149.093C211.48 148.382 211.007 147.615 210.634 146.79C210.277 145.97 210.051 145.046 209.956 144.017ZM236.529 142.806C236.095 142.69 235.618 142.599 235.097 142.534C234.58 142.451 234.07 142.379 233.566 142.319C233.206 142.278 232.856 142.231 232.518 142.177C232.196 142.128 231.903 142.077 231.639 142.025C231.415 142.374 231.203 142.679 231.003 142.942C230.803 143.204 230.596 143.455 230.383 143.695C230.166 143.952 229.954 144.221 229.749 144.5C229.566 144.767 229.377 145.06 229.18 145.379C228.932 145.61 228.715 145.83 228.529 146.04C228.364 146.238 228.208 146.474 228.06 146.751C227.782 146.955 227.552 147.19 227.369 147.457C227.191 147.707 227.048 147.928 226.94 148.122L226.752 148.406C226.62 148.483 226.537 148.553 226.501 148.618C226.469 148.665 226.412 148.705 226.329 148.739C226.26 148.925 226.149 149.099 225.994 149.262C225.936 149.339 225.886 149.419 225.846 149.501C225.81 149.566 225.787 149.615 225.778 149.65C225.732 149.823 225.658 149.924 225.558 149.953C225.552 150.045 225.526 150.14 225.481 150.239C225.44 150.321 225.4 150.403 225.359 150.485C225.252 150.679 225.19 150.839 225.175 150.965C225.208 151.049 225.235 151.121 225.256 151.182C225.294 151.248 225.31 151.327 225.304 151.418C225.39 151.515 225.456 151.579 225.504 151.611C225.559 151.681 225.647 151.77 225.767 151.876L225.931 152.199C225.883 152.725 225.698 153.103 225.377 153.332C225.028 153.592 224.542 153.638 223.918 153.471L223.606 153.387C223.543 153.277 223.51 153.194 223.506 153.137C223.381 153.048 223.28 152.975 223.203 152.917C223.126 152.859 223.066 152.769 223.025 152.646C222.827 152.482 222.669 152.346 222.548 152.24L222.349 152.047C222.4 151.857 222.428 151.753 222.433 151.735C222.353 151.547 222.305 151.348 222.286 151.139C222.285 150.934 222.293 150.732 222.31 150.532C222.317 150.367 222.313 150.208 222.298 150.055C222.3 149.907 222.281 149.772 222.24 149.649C222.474 148.635 222.797 147.811 223.208 147.178C223.619 146.545 224.032 145.941 224.447 145.364C224.678 145.055 224.91 144.745 225.141 144.436C225.377 144.109 225.598 143.769 225.805 143.416L226.108 143.218C226.304 142.973 226.46 142.774 226.575 142.619C226.713 142.452 226.851 142.284 226.989 142.117C227.073 142.009 227.147 141.908 227.209 141.814C227.294 141.706 227.365 141.614 227.423 141.536C227.319 141.509 227.221 141.492 227.13 141.486C227.043 141.463 226.954 141.448 226.863 141.442C226.754 141.432 226.654 141.423 226.563 141.417C226.476 141.394 226.39 141.371 226.303 141.348C226.182 141.315 226.097 141.283 226.05 141.252C225.836 141.288 225.617 141.275 225.391 141.215L225.131 141.145C225.079 141.131 225.027 141.117 224.975 141.103C224.945 141.077 224.913 141.059 224.878 141.05C224.705 141.003 224.559 140.992 224.441 141.016C224.233 140.96 224.034 140.907 223.843 140.856L223.583 140.786C223.549 140.777 223.503 140.774 223.446 140.777C223.394 140.763 223.351 140.752 223.316 140.743C223.195 140.71 223.067 140.667 222.933 140.612C222.804 140.54 222.673 140.44 222.54 140.312C222.407 139.979 222.307 139.794 222.243 139.758L222.092 139.384C222.103 139.275 222.102 139.173 222.091 139.077C222.084 138.963 222.08 138.841 222.077 138.711C222.055 138.519 222.034 138.318 222.016 138.109C222.02 137.887 222.059 137.638 222.133 137.36C222.187 137.226 222.25 137.132 222.32 137.076C222.391 137.021 222.451 136.972 222.499 136.929L222.682 136.56L223.013 136.677L223.741 136.872C224.295 137.02 224.863 137.154 225.444 137.272C226.03 137.374 226.634 137.48 227.254 137.59C227.61 137.648 227.966 137.707 228.322 137.765C228.695 137.828 229.077 137.893 229.468 137.96C229.579 137.823 229.688 137.694 229.794 137.574L230.089 137.514C230.406 137.58 230.611 137.681 230.704 137.818C230.819 137.942 230.909 138.059 230.972 138.168C231.363 138.236 231.754 138.303 232.144 138.371C232.557 138.426 232.972 138.472 233.389 138.509C234.001 138.581 234.612 138.661 235.219 138.749C235.845 138.842 236.435 138.963 236.989 139.112C237.232 139.177 237.463 139.248 237.684 139.326C237.905 139.404 238.106 139.485 238.287 139.571L238.498 139.823C238.523 139.941 238.566 140.055 238.63 140.165C238.711 140.279 238.791 140.394 238.872 140.508C239.029 140.754 239.177 141.036 239.315 141.351C239.453 141.667 239.429 142.069 239.242 142.558C239.048 142.729 238.912 142.822 238.833 142.838L238.515 143.088L238.262 142.992C238.158 142.964 238.058 142.956 237.962 142.967C237.871 142.961 237.777 142.964 237.682 142.976C237.603 142.992 237.524 143.008 237.446 143.024C237.372 143.023 237.289 143.019 237.198 143.013C237.042 142.971 236.912 142.936 236.808 142.909C236.726 142.868 236.633 142.834 236.529 142.806ZM244.162 155.914C243.98 156.18 243.742 156.442 243.451 156.698C243.181 156.942 242.875 157.148 242.533 157.316C242.212 157.472 241.867 157.583 241.496 157.651C241.125 157.719 240.755 157.713 240.386 157.633C240.175 157.52 240.035 157.418 239.967 157.325C239.911 157.255 239.847 157.182 239.775 157.106C239.732 157.058 239.687 157.018 239.64 156.987C239.614 156.943 239.586 156.907 239.556 156.881L239.279 156.667L239.474 156.357C239.546 156.228 239.565 156.121 239.531 156.038C239.503 155.938 239.429 155.797 239.31 155.617C239.272 155.551 239.234 155.485 239.196 155.419C239.158 155.353 239.128 155.289 239.108 155.228L238.798 154.616L239.549 154.622C240.015 154.616 240.342 154.537 240.532 154.384C240.739 154.235 240.886 153.93 240.972 153.47C240.644 153.308 240.351 153.221 240.095 153.208C239.856 153.199 239.605 153.197 239.344 153.202C239.009 153.205 238.667 153.197 238.319 153.178C237.994 153.146 237.64 153.079 237.259 152.977C237.12 152.94 236.99 152.905 236.869 152.873C236.752 152.823 236.627 152.771 236.493 152.716L236.247 152.594C236.263 152.395 236.256 152.281 236.226 152.255C236.201 152.211 236.175 152.167 236.15 152.123C236.087 152.013 236.021 151.875 235.955 151.708C235.91 151.529 235.944 151.334 236.056 151.122C236.011 150.943 236.001 150.773 236.025 150.613C235.866 150.793 235.73 150.988 235.617 151.2L235.444 151.432L235.17 151.414C235.13 151.422 235.093 151.459 235.057 151.523C235.026 151.571 235.005 151.612 234.996 151.646L234.748 152.053C234.704 152.079 234.66 152.104 234.616 152.13C234.576 152.138 234.535 152.154 234.491 152.18C234.414 152.326 234.329 152.471 234.235 152.613C234.142 152.755 234.05 152.888 233.961 153.013C233.814 153.215 233.676 153.42 233.546 153.626C233.438 153.82 233.365 154.024 233.327 154.236L233.146 154.494C233.032 154.575 232.913 154.636 232.79 154.678C232.673 154.702 232.555 154.726 232.437 154.75C232.393 154.776 232.331 154.796 232.253 154.812C232.196 154.816 232.148 154.821 232.109 154.83L231.954 155.095L231.628 155.063C231.428 155.047 231.283 155.035 231.191 155.03C231.118 155.028 231.029 155.014 230.925 154.986L230.672 154.89C230.523 154.683 230.408 154.522 230.327 154.408C230.251 154.276 230.155 154.148 230.04 154.024C229.939 153.775 229.895 153.595 229.905 153.487C229.916 153.378 229.924 153.278 229.93 153.187C229.923 153.073 229.929 152.982 229.947 152.913C229.949 152.839 229.937 152.78 229.911 152.736L229.657 152.333L230.006 152.176L230.15 151.741C230.733 150.95 231.325 150.198 231.925 149.486C232.541 148.778 233.172 148.055 233.815 147.317C234.028 147.077 234.232 146.835 234.428 146.59C234.641 146.35 234.854 146.11 235.067 145.87C235.064 145.813 235.071 145.75 235.09 145.681C235.108 145.611 235.147 145.538 235.204 145.461C235.474 145.217 235.7 144.999 235.881 144.806C236.068 144.596 236.254 144.386 236.44 144.176C236.658 143.918 236.873 143.669 237.086 143.429C237.317 143.194 237.584 142.959 237.888 142.724L238.353 142.654C238.41 142.65 238.475 142.649 238.549 142.651C238.627 142.635 238.71 142.638 238.797 142.661L239.173 142.818C239.718 142.723 240.227 142.524 240.697 142.223C241.173 141.905 241.678 141.511 242.212 141.041L242.57 140.747L242.852 141.045C242.925 141.12 243.032 141.205 243.174 141.299C243.321 141.375 243.474 141.463 243.634 141.561C243.927 141.714 244.201 141.871 244.455 142.032C244.709 142.193 244.899 142.383 245.026 142.603C245.056 142.908 245.061 143.132 245.041 143.276C245.021 143.419 245.01 143.565 245.008 143.713C244.981 144.021 244.945 144.327 244.901 144.631C244.874 144.94 244.82 145.278 244.74 145.647C244.748 145.965 244.738 146.278 244.711 146.587C244.706 146.883 244.69 147.185 244.663 147.493C244.638 147.933 244.616 148.363 244.596 148.785C244.58 149.19 244.595 149.584 244.641 149.967C244.78 150.005 244.864 150.037 244.894 150.063C244.99 150.052 245.084 150.049 245.175 150.055C245.284 150.065 245.401 150.078 245.527 150.093L245.82 150.144L245.854 150.432C245.848 150.523 245.912 150.633 246.045 150.761C246.265 150.839 246.416 150.935 246.497 151.05C246.582 151.147 246.657 151.251 246.72 151.36C246.771 151.448 246.826 151.519 246.886 151.572L247.234 151.833L246.922 152.167C246.665 152.432 246.332 152.668 245.924 152.875C245.538 153.069 245.12 153.207 244.67 153.291C244.66 153.4 244.64 153.506 244.613 153.61C244.607 153.701 244.607 153.804 244.614 153.917C244.587 154.226 244.549 154.54 244.5 154.862C244.451 155.183 244.365 155.504 244.242 155.824L244.162 155.914ZM237.854 149.403C238.383 149.507 238.861 149.598 239.286 149.675C239.733 149.739 240.231 149.789 240.779 149.824C240.797 149.272 240.81 148.7 240.82 148.108C240.835 147.499 240.839 146.896 240.831 146.299L240.606 146.518C240.161 146.789 239.714 147.105 239.264 147.468C238.832 147.835 238.449 148.188 238.117 148.526C237.971 148.654 237.825 148.782 237.68 148.91C237.534 149.038 237.397 149.169 237.268 149.302C237.377 149.312 237.475 149.329 237.561 149.352C237.665 149.38 237.763 149.397 237.854 149.403ZM256.095 161.507C255.813 161.45 255.468 161.349 255.062 161.203C254.672 161.061 254.283 161.022 253.895 161.085C252.986 160.804 252.08 160.441 251.178 159.995C250.275 159.549 249.463 159.08 248.74 158.589C248.618 158.352 248.491 158.132 248.359 157.93C248.232 157.71 248.031 157.526 247.755 157.378C247.427 156.937 247.196 156.448 247.061 155.91C246.931 155.355 246.86 154.788 246.848 154.209C246.836 153.63 246.879 153.056 246.975 152.488C247.077 151.902 247.206 151.351 247.362 150.836C247.831 150.126 248.374 149.556 248.99 149.127C249.629 148.685 250.274 148.254 250.925 147.834C251.178 147.79 251.371 147.73 251.503 147.654C251.657 147.565 251.806 147.494 251.95 147.44C252.117 147.373 252.272 147.312 252.417 147.258C252.583 147.191 252.737 147.103 252.878 146.992C253.266 147.003 253.61 146.965 253.912 146.879C254.236 146.78 254.551 146.678 254.857 146.575C255.168 146.454 255.483 146.352 255.802 146.271C256.122 146.189 256.475 146.154 256.862 146.164C257.042 146.046 257.239 145.968 257.453 145.933C257.672 145.88 257.888 145.836 258.102 145.8C258.338 145.752 258.556 145.699 258.758 145.641C258.976 145.588 259.161 145.489 259.311 145.344C259.36 145.506 259.468 145.59 259.633 145.597C259.803 145.587 259.964 145.575 260.117 145.56C260.208 145.566 260.273 145.602 260.311 145.667C260.366 145.738 260.413 145.806 260.451 145.872C260.489 145.938 260.523 145.984 260.553 146.011C260.605 146.025 260.66 145.993 260.718 145.916C260.805 145.939 260.819 145.989 260.761 146.067C260.703 146.144 260.661 146.198 260.634 146.228C260.778 146.248 260.881 146.313 260.945 146.422C261.03 146.52 261.174 146.605 261.378 146.678C261.424 146.783 261.423 146.857 261.374 146.9C261.33 146.925 261.294 146.99 261.266 147.094C261.744 147.389 262.006 147.729 262.052 148.112C262.103 148.479 262.018 148.828 261.8 149.159C261.581 149.491 261.273 149.771 260.878 149.999C260.482 150.227 260.089 150.345 259.697 150.351C258.804 150.354 257.949 150.394 257.129 150.471C256.331 150.536 255.629 150.766 255.022 151.161C254.573 151.17 254.156 151.235 253.771 151.355C253.408 151.462 253.045 151.606 252.68 151.787C252.338 151.956 252 152.143 251.665 152.351C251.353 152.546 251.023 152.736 250.676 152.922C250.629 153.169 250.534 153.348 250.393 153.459C250.274 153.557 250.152 153.664 250.029 153.78C249.994 154.049 249.992 154.299 250.023 154.53C250.058 154.744 250.102 154.96 250.155 155.179C251.206 155.832 252.362 156.374 253.621 156.804C254.898 157.239 256.184 157.639 257.479 158.005C257.554 158.211 257.648 158.413 257.762 158.61C257.899 158.795 258.013 158.993 258.105 159.204C258.202 159.397 258.266 159.609 258.297 159.84C258.332 160.054 258.285 160.301 258.154 160.582C257.841 160.777 257.508 160.948 257.153 161.094C256.802 161.223 256.45 161.361 256.095 161.507ZM277.112 153.68C276.679 153.564 276.201 153.473 275.68 153.408C275.164 153.325 274.653 153.254 274.15 153.193C273.789 153.152 273.439 153.105 273.101 153.051C272.78 153.002 272.487 152.952 272.222 152.899C271.998 153.248 271.787 153.554 271.586 153.816C271.386 154.078 271.179 154.329 270.966 154.569C270.749 154.827 270.538 155.095 270.333 155.375C270.15 155.641 269.96 155.934 269.763 156.253C269.515 156.484 269.298 156.704 269.112 156.915C268.948 157.112 268.791 157.349 268.643 157.625C268.365 157.829 268.135 158.065 267.952 158.331C267.774 158.581 267.631 158.803 267.523 158.997L267.336 159.281C267.204 159.357 267.12 159.427 267.084 159.492C267.053 159.539 266.995 159.58 266.912 159.613C266.844 159.799 266.732 159.973 266.577 160.136C266.519 160.214 266.47 160.293 266.429 160.375C266.393 160.44 266.371 160.49 266.361 160.524C266.315 160.698 266.241 160.799 266.141 160.828C266.135 160.919 266.109 161.014 266.064 161.113C266.024 161.196 265.983 161.278 265.943 161.36C265.835 161.554 265.773 161.714 265.758 161.84C265.792 161.923 265.819 161.995 265.839 162.056C265.877 162.122 265.894 162.201 265.888 162.292C265.973 162.389 266.039 162.454 266.087 162.485C266.142 162.555 266.23 162.644 266.35 162.751L266.514 163.073C266.466 163.599 266.282 163.977 265.96 164.206C265.612 164.466 265.126 164.512 264.502 164.345L264.19 164.261C264.126 164.152 264.093 164.068 264.089 164.012C263.965 163.923 263.864 163.849 263.786 163.791C263.709 163.733 263.65 163.643 263.608 163.52C263.411 163.356 263.252 163.221 263.132 163.114L262.933 162.922C262.984 162.731 263.012 162.627 263.016 162.61C262.937 162.421 262.888 162.222 262.87 162.013C262.869 161.808 262.876 161.606 262.893 161.406C262.9 161.241 262.896 161.082 262.881 160.929C262.884 160.781 262.864 160.646 262.823 160.524C263.057 159.509 263.38 158.685 263.791 158.052C264.203 157.42 264.615 156.815 265.03 156.239C265.261 155.929 265.493 155.62 265.724 155.31C265.961 154.983 266.182 154.643 266.388 154.29L266.692 154.093C266.887 153.848 267.043 153.648 267.159 153.493C267.296 153.326 267.434 153.158 267.572 152.991C267.656 152.884 267.73 152.782 267.792 152.688C267.877 152.58 267.948 152.488 268.006 152.411C267.902 152.383 267.804 152.366 267.713 152.36C267.626 152.337 267.537 152.322 267.446 152.316C267.337 152.306 267.238 152.298 267.146 152.292C267.06 152.268 266.973 152.245 266.886 152.222C266.765 152.19 266.681 152.158 266.633 152.126C266.419 152.162 266.2 152.15 265.974 152.089L265.714 152.02C265.662 152.006 265.61 151.992 265.558 151.978C265.528 151.951 265.496 151.933 265.461 151.924C265.288 151.877 265.142 151.866 265.025 151.89C264.817 151.835 264.617 151.781 264.427 151.73L264.167 151.661C264.132 151.651 264.086 151.648 264.03 151.652C263.978 151.638 263.934 151.626 263.9 151.617C263.778 151.584 263.651 151.541 263.517 151.486C263.387 151.415 263.256 151.314 263.123 151.186C262.99 150.853 262.891 150.668 262.826 150.633L262.676 150.258C262.686 150.149 262.686 150.047 262.674 149.951C262.667 149.838 262.663 149.716 262.661 149.585C262.638 149.393 262.617 149.193 262.599 148.983C262.603 148.762 262.642 148.512 262.716 148.235C262.771 148.101 262.833 148.006 262.904 147.95C262.974 147.895 263.034 147.846 263.082 147.803L263.265 147.434L263.596 147.551L264.324 147.746C264.879 147.894 265.446 148.028 266.028 148.147C266.614 148.248 267.217 148.354 267.837 148.464C268.193 148.523 268.549 148.581 268.905 148.639C269.278 148.702 269.66 148.767 270.051 148.835C270.162 148.697 270.271 148.568 270.377 148.448L270.672 148.388C270.989 148.454 271.194 148.556 271.287 148.692C271.403 148.816 271.492 148.933 271.556 149.043C271.946 149.11 272.337 149.178 272.727 149.245C273.14 149.3 273.555 149.346 273.972 149.384C274.585 149.455 275.195 149.535 275.803 149.623C276.428 149.717 277.018 149.838 277.572 149.986C277.815 150.051 278.047 150.123 278.267 150.2C278.488 150.278 278.689 150.36 278.87 150.445L279.082 150.697C279.106 150.815 279.15 150.929 279.213 151.039C279.294 151.153 279.375 151.268 279.455 151.382C279.612 151.629 279.76 151.91 279.898 152.226C280.037 152.541 280.012 152.943 279.826 153.432C279.631 153.603 279.495 153.696 279.416 153.712L279.099 153.962L278.846 153.866C278.742 153.838 278.642 153.83 278.546 153.841C278.454 153.836 278.361 153.838 278.265 153.85C278.186 153.866 278.108 153.882 278.029 153.898C277.955 153.897 277.872 153.893 277.781 153.887C277.625 153.846 277.495 153.811 277.391 153.783C277.309 153.742 277.216 153.708 277.112 153.68ZM275.284 154.054C275.503 153.723 275.777 153.462 276.107 153.272C276.454 153.086 276.807 152.948 277.165 152.859C277.545 152.756 277.925 152.691 278.304 152.662C278.683 152.634 279.041 152.618 279.376 152.615C280.148 152.506 280.959 152.426 281.809 152.375C282.68 152.311 283.551 152.285 284.422 152.295C285.309 152.31 286.193 152.408 287.074 152.588C287.959 152.751 288.841 153.098 289.72 153.631C289.726 153.818 289.759 154.004 289.822 154.188C289.884 154.372 289.946 154.556 290.008 154.739C290.088 154.928 290.15 155.112 290.195 155.291C290.244 155.453 290.257 155.614 290.232 155.775C290.364 155.977 290.456 156.188 290.509 156.406C290.567 156.607 290.521 156.846 290.373 157.122C290.163 157.214 289.954 157.298 289.749 157.373C289.565 157.435 289.366 157.484 289.152 157.519C288.552 157.192 287.916 156.965 287.244 156.841C286.571 156.716 285.97 156.602 285.441 156.497C285.327 156.299 285.157 156.17 284.932 156.11C284.724 156.054 284.489 156.029 284.228 156.033C283.984 156.042 283.732 156.048 283.47 156.053C283.226 156.062 283.005 156.021 282.806 155.931C282.596 156.023 282.354 156.06 282.08 156.042C281.828 156.012 281.55 155.975 281.246 155.93C281.206 156.012 281.207 156.078 281.249 156.126C281.297 156.158 281.291 156.212 281.234 156.289C281.305 156.438 281.412 156.56 281.554 156.654C281.713 156.752 281.873 156.851 282.032 156.949C282.209 157.052 282.355 157.166 282.47 157.289C282.59 157.396 282.653 157.543 282.659 157.73C282.919 157.8 283.128 157.921 283.286 158.093C283.444 158.266 283.561 158.455 283.635 158.66C283.71 158.866 283.746 159.08 283.742 159.302C283.76 159.511 283.749 159.694 283.707 159.85C283.722 160.003 283.766 160.079 283.84 160.081C283.914 160.082 283.983 160.137 284.046 160.247C284.038 160.487 284.105 160.755 284.248 161.054C284.396 161.335 284.493 161.63 284.54 161.94C284.459 162.383 284.38 162.78 284.305 163.131C284.234 163.465 284.082 163.787 283.851 164.096C283.419 164.668 282.902 165.142 282.299 165.519C281.714 165.901 281.073 166.213 280.377 166.453C279.703 166.681 278.999 166.846 278.266 166.947C277.534 167.047 276.83 167.11 276.154 167.133C276.09 167.097 276.02 167.079 275.947 167.077C275.873 167.076 275.867 167.028 275.929 166.933C275.758 167.018 275.581 167.054 275.399 167.042C275.233 167.035 275.058 166.997 274.872 166.929C274.681 166.878 274.484 166.816 274.281 166.742C274.095 166.674 273.91 166.634 273.728 166.622C273.639 166.468 273.559 166.317 273.487 166.168C273.429 166.04 273.396 165.883 273.391 165.696C273.304 165.673 273.272 165.618 273.296 165.531C273.336 165.449 273.322 165.399 273.253 165.38C273.403 165.235 273.472 165.151 273.459 165.129C273.468 165.094 273.449 165.061 273.402 165.03C273.372 165.004 273.342 164.977 273.312 164.95C273.287 164.906 273.29 164.861 273.321 164.813C273.427 164.693 273.495 164.544 273.524 164.366C273.558 164.171 273.592 163.976 273.625 163.78C273.659 163.585 273.717 163.405 273.798 163.241C273.896 163.082 274.063 162.978 274.299 162.93C274.87 163.157 275.429 163.288 275.977 163.324C276.547 163.346 277.094 163.316 277.617 163.234C278.141 163.151 278.643 163.044 279.124 162.913C279.623 162.787 280.105 162.684 280.572 162.605C280.666 162.463 280.77 162.351 280.885 162.27C281.017 162.194 281.146 162.127 281.273 162.068C281.401 162.009 281.522 161.939 281.636 161.859C281.751 161.778 281.846 161.664 281.923 161.517C281.972 161.401 281.956 161.322 281.874 161.282C281.814 161.228 281.798 161.15 281.826 161.046L281.561 160.891C281.283 160.612 280.952 160.356 280.568 160.124C280.19 159.873 279.874 159.631 279.621 159.396C279.402 159.449 279.213 159.426 279.054 159.328C278.912 159.234 278.718 159.126 278.472 159.005C277.892 158.812 277.336 158.598 276.805 158.363C276.291 158.132 275.812 157.837 275.37 157.477C275.359 157.381 275.336 157.291 275.303 157.208C275.27 157.125 275.179 157.082 275.031 157.079C274.964 156.913 274.895 156.755 274.823 156.606C274.757 156.439 274.701 156.266 274.656 156.087C274.746 155.889 274.819 155.722 274.873 155.588C274.932 155.437 274.92 155.276 274.836 155.104C274.965 154.898 275.066 154.73 275.138 154.6C275.21 154.471 275.258 154.289 275.284 154.054Z" fill="#BCBCBC"/>
<g clip-path="url(#clip0_121_131)">
<path d="M221.785 170.802C226.66 172.099 231.041 174.812 234.374 178.598C237.707 182.385 239.842 187.075 240.51 192.075C241.177 197.075 240.347 202.16 238.124 206.689C235.902 211.217 232.386 214.984 228.022 217.515C223.658 220.045 218.642 221.224 213.608 220.904C208.574 220.583 203.747 218.777 199.74 215.713C195.732 212.65 192.723 208.467 191.093 203.693C189.462 198.919 189.284 193.769 190.581 188.894L190.593 188.849C192.342 182.323 196.608 176.757 202.456 173.374C208.304 169.99 215.256 169.065 221.785 170.802V170.802ZM206.136 229.203C233.661 236.579 250.451 260.725 248.005 269.854L244.57 282.675L146.116 256.294L149.613 243.244C152.059 234.115 178.609 221.828 206.136 229.203Z" stroke="#BCBCBC" stroke-width="2.75676" stroke-linecap="round" stroke-linejoin="round"/>
</g>
<g opacity="0.7" clip-path="url(#clip1_121_131)">
<path d="M195.767 281.285C195.828 281.19 195.868 281.083 195.887 280.971C195.906 280.86 195.903 280.746 195.877 280.635C195.852 280.525 195.805 280.421 195.74 280.329C195.674 280.236 195.591 280.158 195.495 280.098C195.399 280.038 195.293 279.997 195.181 279.978C195.07 279.959 194.955 279.963 194.845 279.988C194.735 280.013 194.631 280.06 194.538 280.125C194.446 280.191 194.368 280.274 194.308 280.37L181.854 300.221C181.732 300.414 181.693 300.648 181.744 300.871C181.795 301.094 181.932 301.287 182.126 301.409C182.32 301.53 182.553 301.57 182.776 301.518C182.999 301.467 183.192 301.33 183.314 301.136L195.767 281.285V281.285ZM185.294 282.936C185.35 283.035 185.387 283.143 185.402 283.255C185.417 283.367 185.41 283.482 185.38 283.591C185.351 283.701 185.3 283.803 185.231 283.893C185.162 283.983 185.076 284.058 184.978 284.115L178.338 287.947L182.172 294.586C182.287 294.784 182.318 295.019 182.258 295.24C182.199 295.461 182.055 295.65 181.856 295.764C181.658 295.879 181.423 295.91 181.202 295.85C180.981 295.791 180.793 295.647 180.678 295.448L176.414 288.063C176.357 287.965 176.321 287.857 176.306 287.744C176.291 287.632 176.298 287.518 176.328 287.408C176.357 287.299 176.408 287.196 176.477 287.106C176.546 287.017 176.632 286.941 176.73 286.885L184.115 282.621C184.213 282.564 184.322 282.527 184.434 282.512C184.546 282.497 184.661 282.505 184.77 282.534C184.879 282.563 184.982 282.614 185.072 282.683C185.162 282.752 185.237 282.838 185.294 282.936V282.936ZM195.765 285.742C195.667 285.799 195.58 285.874 195.511 285.964C195.442 286.054 195.392 286.156 195.362 286.266C195.333 286.375 195.326 286.489 195.341 286.602C195.355 286.714 195.392 286.822 195.449 286.92L199.283 293.559L192.643 297.392C192.545 297.448 192.459 297.524 192.39 297.614C192.321 297.703 192.271 297.806 192.241 297.915C192.212 298.025 192.205 298.139 192.219 298.251C192.234 298.363 192.271 298.472 192.328 298.57C192.384 298.668 192.46 298.754 192.55 298.823C192.639 298.892 192.742 298.942 192.851 298.972C192.961 299.001 193.075 299.009 193.187 298.994C193.299 298.979 193.408 298.942 193.506 298.886L200.891 294.622C200.989 294.565 201.076 294.49 201.145 294.4C201.214 294.31 201.264 294.207 201.294 294.098C201.323 293.989 201.33 293.874 201.316 293.762C201.301 293.65 201.264 293.541 201.207 293.443L196.943 286.058C196.886 285.96 196.811 285.874 196.721 285.805C196.631 285.736 196.529 285.685 196.419 285.656C196.31 285.626 196.196 285.619 196.083 285.634C195.971 285.649 195.863 285.685 195.765 285.742V285.742Z" fill="white"/>
</g>
<rect x="-0.963763" y="-1.67006" width="262.729" height="253.202" rx="16.5406" transform="matrix(0.96861 0.248586 -0.269411 0.963025 122.431 44.1239)" stroke="#BCBCBC" stroke-width="2.75676"/>
<g opacity="0.5">
<path d="M392.841 349.475H394.093V346.965H392.854C392.469 346.957 389.084 346.748 389.084 341.944C389.084 339.443 388.252 337.87 387.204 336.923C388.252 335.977 389.084 334.404 389.084 331.903C389.084 327.099 392.469 326.89 392.841 326.882H394.093V324.372H392.838C390.673 324.377 386.58 325.958 386.58 331.903C386.58 335.417 384.479 335.656 384.059 335.668L384.076 338.179C384.179 338.179 386.58 338.221 386.58 341.944C386.58 347.889 390.673 349.47 392.841 349.475ZM409.117 335.668C409.015 335.668 406.613 335.626 406.613 331.903C406.613 325.958 402.52 324.377 400.353 324.372H399.101V326.882H400.339C400.725 326.89 404.109 327.099 404.109 331.903C404.109 334.404 404.942 335.977 405.99 336.923C404.942 337.87 404.109 339.443 404.109 341.944C404.109 346.748 400.725 346.957 400.353 346.965H399.101V349.475H400.355C402.52 349.47 406.613 347.889 406.613 341.944C406.613 338.43 408.714 338.191 409.135 338.179L409.117 335.668Z" fill="#5454D4"/>
</g>
<g opacity="0.5" clip-path="url(#clip2_121_131)">
<path d="M26.0423 326.801L20.4879 324.228C20.1738 324.082 19.82 324.033 19.4758 324.089C19.1317 324.145 18.8142 324.303 18.5676 324.541L7.92871 333.889L3.29231 330.503C3.0835 330.349 2.82528 330.271 2.56269 330.282C2.30009 330.293 2.04978 330.392 1.8554 330.562L0.3704 331.866C0.254332 331.967 0.161477 332.09 0.0977952 332.228C0.0341132 332.365 0.00101123 332.514 0.00061397 332.665C0.000216714 332.815 0.032533 332.964 0.0954885 333.102C0.158444 333.24 0.250648 333.364 0.366181 333.465L4.38749 336.999L0.366181 340.533C0.250648 340.634 0.158444 340.758 0.0954885 340.896C0.032533 341.034 0.000216714 341.183 0.00061397 341.333C0.00101123 341.484 0.0341132 341.633 0.0977952 341.771C0.161477 341.908 0.254332 342.031 0.3704 342.132L1.8554 343.436C2.04978 343.606 2.30009 343.705 2.56269 343.716C2.82528 343.727 3.0835 343.649 3.29231 343.495L7.92871 340.105L18.5726 349.457C18.8184 349.695 19.1351 349.853 19.4787 349.909C19.8222 349.965 20.1754 349.917 20.4888 349.77L26.0482 347.193C26.3345 347.06 26.576 346.852 26.7448 346.593C26.9135 346.334 27.0026 346.034 27.0017 345.729V328.264C27.0017 327.641 26.6279 327.07 26.044 326.8L26.0423 326.801ZM20.2542 342.903L12.177 337L20.2542 331.096V342.903Z" fill="#5454D4"/>
</g>
<g opacity="0.5">
<path d="M383 0V25.3677H409.201V0H383ZM402.53 3.05363C404.106 3.05363 405.441 3.52293 406.533 4.40446L405.32 6.16646C404.349 5.52064 403.44 5.10947 402.53 5.10947C401.619 5.10947 401.134 5.52064 401.134 6.04913V6.10832C401.134 6.81333 401.619 7.04798 403.439 7.51728C405.622 8.10497 406.835 8.86811 406.835 10.6882V10.7474C406.835 12.8614 405.198 14.0357 402.893 14.0357C401.256 13.9765 399.618 13.3899 398.344 12.2737L399.739 10.6291C400.71 11.3922 401.74 11.9207 402.953 11.9207C403.924 11.9207 404.47 11.5687 404.47 10.9229V10.8637C404.47 10.276 404.106 9.98323 402.286 9.51287C400.103 8.98438 398.769 8.3967 398.769 6.28272V6.22353C398.769 4.28608 400.345 3.05258 402.529 3.05258L402.53 3.05363ZM384.941 3.28828H387.428L389.066 9.39555L390.945 3.28828H392.765L394.585 9.39555L396.223 3.28828H398.77L395.677 13.799H393.615L391.856 7.69169L390.036 13.799H388.035L384.942 3.28828H384.941ZM385.487 20.6112H395.312V22.1967H385.487V20.6112Z" fill="#5454D4"/>
</g>
<defs>
<clipPath id="clip0_121_131">
<rect width="103.402" height="103.403" fill="white" transform="translate(172.014 156.837) rotate(14.9999)"/>
</clipPath>
<clipPath id="clip1_121_131">
<rect width="27.5728" height="27.5731" fill="white" transform="translate(179.064 273.872) rotate(14.9999)"/>
</clipPath>
<clipPath id="clip2_121_131">
<rect width="27" height="26" fill="white" transform="translate(0 324)"/>
</clipPath>
</defs>
</svg>
