<svg width="142" height="32" viewBox="0 0 142 32" fill="none" xmlns="http://www.w3.org/2000/svg">
<path d="M4.39062 20.9258C4.40365 20.8737 4.41016 20.8346 4.41016 20.8086C4.42318 20.7826 4.40365 20.75 4.35156 20.7109C4.32552 20.6198 4.34505 20.5612 4.41016 20.5352C4.47526 20.5091 4.54036 20.4831 4.60547 20.457C4.67057 19.6758 4.80078 18.9661 4.99609 18.3281C5.20443 17.6771 5.42578 17.0456 5.66016 16.4336C5.90755 15.8216 6.14844 15.2096 6.38281 14.5977C6.63021 13.9727 6.83203 13.2956 6.98828 12.5664C7.15755 12.3971 7.29427 12.1953 7.39844 11.9609C7.51562 11.7266 7.6263 11.4922 7.73047 11.2578C7.84766 11.0104 7.97786 10.776 8.12109 10.5547C8.27734 10.3333 8.48568 10.151 8.74609 10.0078C8.86328 10.0208 8.96745 10.0469 9.05859 10.0859C9.16276 10.112 9.26042 10.1445 9.35156 10.1836C9.44271 10.2227 9.54036 10.2552 9.64453 10.2812C9.7487 10.3073 9.85938 10.3203 9.97656 10.3203C10.0286 10.3854 10.0742 10.4635 10.1133 10.5547C10.1523 10.6328 10.2044 10.7044 10.2695 10.7695L10.6211 10.7109C10.7904 10.8542 10.9401 11.0365 11.0703 11.2578C11.2005 11.4661 11.2917 11.6875 11.3438 11.9219C11.3958 12.1432 11.3893 12.3646 11.3242 12.5859C11.2591 12.7943 11.1094 12.957 10.875 13.0742C10.888 13.1523 10.888 13.2109 10.875 13.25C10.862 13.2891 10.8424 13.3281 10.8164 13.3672C10.8034 13.3932 10.7969 13.4258 10.7969 13.4648C10.7969 13.4909 10.8229 13.5299 10.875 13.582C10.7318 13.6992 10.6016 13.849 10.4844 14.0312C10.3672 14.2005 10.2695 14.3828 10.1914 14.5781C10.1133 14.7734 10.0482 14.9688 9.99609 15.1641C9.95703 15.3594 9.93099 15.5417 9.91797 15.7109C10.2956 15.3203 10.7383 14.9557 11.2461 14.6172C11.7539 14.2786 12.1966 13.9596 12.5742 13.6602C12.8737 13.4518 13.1341 13.2565 13.3555 13.0742C13.5898 12.8789 13.8242 12.7031 14.0586 12.5469C14.293 12.3776 14.5339 12.2214 14.7812 12.0781C15.0417 11.9219 15.3021 11.7526 15.5625 11.5703C15.6927 11.5182 15.7904 11.5052 15.8555 11.5312C15.9336 11.5573 16.0052 11.5898 16.0703 11.6289C16.0833 11.5378 16.0638 11.4857 16.0117 11.4727C15.9596 11.4466 15.9401 11.3815 15.9531 11.2773C16.1745 11.2122 16.3698 11.1341 16.5391 11.043C16.7214 10.9518 16.9102 10.8672 17.1055 10.7891C17.2357 10.9323 17.3659 11.0885 17.4961 11.2578C17.6263 11.4141 17.8021 11.4987 18.0234 11.5117C18.1016 11.681 18.1927 11.8112 18.2969 11.9023C18.4141 11.9805 18.5247 12.0586 18.6289 12.1367C18.7461 12.2148 18.8438 12.3125 18.9219 12.4297C19 12.5339 19.0456 12.7031 19.0586 12.9375C19.0065 13.0417 18.9414 13.1589 18.8633 13.2891C18.7982 13.4062 18.7396 13.556 18.6875 13.7383C18.375 14.0247 18.056 14.2786 17.7305 14.5C17.418 14.7083 17.0924 14.9102 16.7539 15.1055C16.4284 15.3008 16.0898 15.5026 15.7383 15.7109C15.3997 15.9193 15.0547 16.1602 14.7031 16.4336C14.625 16.5508 14.5273 16.6549 14.4102 16.7461C14.293 16.8372 14.1693 16.9284 14.0391 17.0195C13.9219 17.0977 13.8047 17.1823 13.6875 17.2734C13.5833 17.3646 13.4987 17.4753 13.4336 17.6055C13.3815 17.6055 13.3359 17.612 13.2969 17.625C13.2578 17.625 13.2122 17.6315 13.1602 17.6445C13.1081 17.7487 13.0299 17.8333 12.9258 17.8984C12.8346 17.9635 12.7695 18.0482 12.7305 18.1523C12.9648 18.6602 13.2708 19.0443 13.6484 19.3047C14.026 19.5651 14.4492 19.7539 14.918 19.8711C15.3867 19.9883 15.8945 20.0534 16.4414 20.0664C16.9883 20.0794 17.5547 20.0859 18.1406 20.0859C18.2057 20.0729 18.2318 20.0404 18.2188 19.9883C18.2188 19.9232 18.2578 19.8971 18.3359 19.9102C18.5312 19.9753 18.694 20.0534 18.8242 20.1445C18.9544 20.2357 19.0781 20.3333 19.1953 20.4375C19.3125 20.5417 19.4232 20.6523 19.5273 20.7695C19.6445 20.8737 19.7747 20.9844 19.918 21.1016C19.8919 21.7135 19.7096 22.2148 19.3711 22.6055C19.0456 22.9831 18.6094 23.2891 18.0625 23.5234C17.3073 23.5495 16.6497 23.5299 16.0898 23.4648C15.5299 23.3997 14.9766 23.2565 14.4297 23.0352C14.3906 23.0221 14.3516 22.9831 14.3125 22.918C14.2865 22.8529 14.2604 22.8073 14.2344 22.7812C14.1302 22.7161 14.013 22.6901 13.8828 22.7031C13.7526 22.7161 13.6419 22.7031 13.5508 22.6641C13.4336 22.612 13.2383 22.4948 12.9648 22.3125C12.7044 22.1302 12.4635 21.9609 12.2422 21.8047C11.9688 21.5833 11.7018 21.3685 11.4414 21.1602C11.194 20.9388 10.9727 20.6979 10.7773 20.4375C10.7383 20.3724 10.6797 20.3398 10.6016 20.3398C10.5365 20.3398 10.4714 20.3203 10.4062 20.2812C9.95052 20.5677 9.56641 20.9258 9.25391 21.3555C8.95443 21.7721 8.66146 22.2018 8.375 22.6445C8.08854 23.0742 7.78255 23.4844 7.45703 23.875C7.14453 24.2526 6.7474 24.5456 6.26562 24.7539C6.1224 24.7539 5.9987 24.7279 5.89453 24.6758C5.79036 24.6367 5.69271 24.5781 5.60156 24.5C5.51042 24.4349 5.41927 24.3698 5.32812 24.3047C5.23698 24.2396 5.13281 24.194 5.01562 24.168C5.01562 23.9857 4.97656 23.8164 4.89844 23.6602C4.83333 23.4909 4.76172 23.3411 4.68359 23.2109C4.61849 23.0677 4.56641 22.931 4.52734 22.8008C4.5013 22.6706 4.54036 22.5404 4.64453 22.4102C4.5013 22.293 4.36458 22.1953 4.23438 22.1172C4.32552 22.026 4.36458 21.9414 4.35156 21.8633C4.35156 21.7852 4.33203 21.707 4.29297 21.6289C4.25391 21.5508 4.22135 21.4727 4.19531 21.3945C4.18229 21.3034 4.20833 21.2057 4.27344 21.1016C4.32552 21.0885 4.34505 21.0625 4.33203 21.0234C4.33203 20.9844 4.35156 20.9518 4.39062 20.9258ZM21.4414 24.7148C21.0638 24.6237 20.7708 24.474 20.5625 24.2656C20.3672 24.0443 20.2174 23.7904 20.1133 23.5039C20.0221 23.2044 19.957 22.8789 19.918 22.5273C19.8919 22.1758 19.8594 21.8112 19.8203 21.4336C19.8724 21.2643 19.9375 21.1211 20.0156 21.0039C20.1068 20.8867 20.1458 20.724 20.1328 20.5156C20.276 20.099 20.4062 19.6953 20.5234 19.3047C20.6406 18.9141 20.7188 18.5104 20.7578 18.0938C20.8359 17.9766 20.9141 17.8984 20.9922 17.8594C21.0964 17.1172 21.1094 16.3555 21.0312 15.5742C20.9531 14.793 20.8229 14.0703 20.6406 13.4062C20.6536 13.263 20.6732 13.1589 20.6992 13.0938C20.7253 13.0156 20.7253 12.9505 20.6992 12.8984C20.6732 12.7812 20.7122 12.7227 20.8164 12.7227C20.9206 12.7227 21.0247 12.7227 21.1289 12.7227C21.1289 12.4883 21.0833 12.2604 20.9922 12.0391C20.9141 11.8047 20.8359 11.5378 20.7578 11.2383C20.862 11.0039 20.9336 10.776 20.9727 10.5547C21.0117 10.3333 21.0833 10.1315 21.1875 9.94922C21.6042 10.0794 22.0143 10.2292 22.418 10.3984C22.8216 10.5677 23.2188 10.737 23.6094 10.9062C24 11.0625 24.3841 11.2188 24.7617 11.375C25.1393 11.5182 25.5104 11.6354 25.875 11.7266C26.4349 12.1302 27.0078 12.5339 27.5938 12.9375C28.1927 13.3281 28.7331 13.7643 29.2148 14.2461C29.7096 14.7148 30.1198 15.2552 30.4453 15.8672C30.7708 16.4792 30.9596 17.2018 31.0117 18.0352C30.9857 18.1133 30.9661 18.1784 30.9531 18.2305C30.9401 18.2826 30.9271 18.3346 30.9141 18.3867C30.901 18.4388 30.8945 18.4974 30.8945 18.5625C30.8945 18.6276 30.8945 18.7188 30.8945 18.8359C30.4258 19.6562 29.8333 20.3464 29.1172 20.9062C28.401 21.4661 27.6198 21.9609 26.7734 22.3906C25.9271 22.8203 25.0417 23.2174 24.1172 23.582C23.2057 23.9336 22.3138 24.3112 21.4414 24.7148ZM23.3555 13.6406C23.2383 13.6406 23.1536 13.6667 23.1016 13.7188C23.2578 14.3047 23.375 14.8581 23.4531 15.3789C23.5312 15.8997 23.5703 16.4206 23.5703 16.9414C23.5833 17.4622 23.5573 17.9961 23.4922 18.543C23.4271 19.0898 23.3359 19.6823 23.2188 20.3203C23.388 20.3073 23.5378 20.2747 23.668 20.2227C23.7982 20.1706 23.9284 20.112 24.0586 20.0469C24.2018 19.9818 24.3451 19.9232 24.4883 19.8711C24.6445 19.819 24.8203 19.7865 25.0156 19.7734C25.0677 19.6693 25.1328 19.5911 25.2109 19.5391C25.3021 19.474 25.3802 19.4089 25.4453 19.3438C25.7708 19.2135 26.0964 19.0768 26.4219 18.9336C26.7474 18.7904 27.0469 18.6276 27.3203 18.4453C27.5938 18.263 27.8411 18.0547 28.0625 17.8203C28.2839 17.5859 28.4661 17.306 28.6094 16.9805C28.5052 16.7852 28.375 16.6224 28.2188 16.4922C28.0755 16.349 27.9193 16.2122 27.75 16.082C27.5938 15.9388 27.4375 15.7956 27.2812 15.6523C27.138 15.4961 27.0208 15.3203 26.9297 15.125C26.7214 15.099 26.5391 15.0469 26.3828 14.9688C26.2266 14.8776 26.0768 14.793 25.9336 14.7148C25.7904 14.6237 25.6341 14.5391 25.4648 14.4609C25.3086 14.3828 25.1198 14.3372 24.8984 14.3242C24.5599 14.1419 24.2539 14.0182 23.9805 13.9531C23.707 13.875 23.4987 13.7708 23.3555 13.6406Z" fill="white"/>
<rect y="0.499999" width="2" height="29" fill="#5454D4"/>
<rect x="34" y="0.499999" width="2" height="32" transform="rotate(90 34 0.499999)" fill="#5454D4"/>
<path d="M40.3906 19.9258C40.4036 19.8737 40.4102 19.8346 40.4102 19.8086C40.4232 19.7826 40.4036 19.75 40.3516 19.7109C40.3255 19.6198 40.3451 19.5612 40.4102 19.5352C40.4753 19.5091 40.5404 19.4831 40.6055 19.457C40.6706 18.6758 40.8008 17.9661 40.9961 17.3281C41.2044 16.6771 41.4258 16.0456 41.6602 15.4336C41.9076 14.8216 42.1484 14.2096 42.3828 13.5977C42.6302 12.9727 42.832 12.2956 42.9883 11.5664C43.1576 11.3971 43.2943 11.1953 43.3984 10.9609C43.5156 10.7266 43.6263 10.4922 43.7305 10.2578C43.8477 10.0104 43.9779 9.77604 44.1211 9.55469C44.2773 9.33333 44.4857 9.15104 44.7461 9.00781C44.8633 9.02083 44.9674 9.04688 45.0586 9.08594C45.1628 9.11198 45.2604 9.14453 45.3516 9.18359C45.4427 9.22266 45.5404 9.25521 45.6445 9.28125C45.7487 9.30729 45.8594 9.32031 45.9766 9.32031C46.0286 9.38542 46.0742 9.46354 46.1133 9.55469C46.1523 9.63281 46.2044 9.70443 46.2695 9.76953L46.6211 9.71094C46.7904 9.85417 46.9401 10.0365 47.0703 10.2578C47.2005 10.4661 47.2917 10.6875 47.3438 10.9219C47.3958 11.1432 47.3893 11.3646 47.3242 11.5859C47.2591 11.7943 47.1094 11.957 46.875 12.0742C46.888 12.1523 46.888 12.2109 46.875 12.25C46.862 12.2891 46.8424 12.3281 46.8164 12.3672C46.8034 12.3932 46.7969 12.4258 46.7969 12.4648C46.7969 12.4909 46.8229 12.5299 46.875 12.582C46.7318 12.6992 46.6016 12.849 46.4844 13.0312C46.3672 13.2005 46.2695 13.3828 46.1914 13.5781C46.1133 13.7734 46.0482 13.9688 45.9961 14.1641C45.957 14.3594 45.931 14.5417 45.918 14.7109C46.2956 14.3203 46.7383 13.9557 47.2461 13.6172C47.7539 13.2786 48.1966 12.9596 48.5742 12.6602C48.8737 12.4518 49.1341 12.2565 49.3555 12.0742C49.5898 11.8789 49.8242 11.7031 50.0586 11.5469C50.293 11.3776 50.5339 11.2214 50.7812 11.0781C51.0417 10.9219 51.3021 10.7526 51.5625 10.5703C51.6927 10.5182 51.7904 10.5052 51.8555 10.5312C51.9336 10.5573 52.0052 10.5898 52.0703 10.6289C52.0833 10.5378 52.0638 10.4857 52.0117 10.4727C51.9596 10.4466 51.9401 10.3815 51.9531 10.2773C52.1745 10.2122 52.3698 10.1341 52.5391 10.043C52.7214 9.95182 52.9102 9.86719 53.1055 9.78906C53.2357 9.93229 53.3659 10.0885 53.4961 10.2578C53.6263 10.4141 53.8021 10.4987 54.0234 10.5117C54.1016 10.681 54.1927 10.8112 54.2969 10.9023C54.4141 10.9805 54.5247 11.0586 54.6289 11.1367C54.7461 11.2148 54.8438 11.3125 54.9219 11.4297C55 11.5339 55.0456 11.7031 55.0586 11.9375C55.0065 12.0417 54.9414 12.1589 54.8633 12.2891C54.7982 12.4062 54.7396 12.556 54.6875 12.7383C54.375 13.0247 54.056 13.2786 53.7305 13.5C53.418 13.7083 53.0924 13.9102 52.7539 14.1055C52.4284 14.3008 52.0898 14.5026 51.7383 14.7109C51.3997 14.9193 51.0547 15.1602 50.7031 15.4336C50.625 15.5508 50.5273 15.6549 50.4102 15.7461C50.293 15.8372 50.1693 15.9284 50.0391 16.0195C49.9219 16.0977 49.8047 16.1823 49.6875 16.2734C49.5833 16.3646 49.4987 16.4753 49.4336 16.6055C49.3815 16.6055 49.3359 16.612 49.2969 16.625C49.2578 16.625 49.2122 16.6315 49.1602 16.6445C49.1081 16.7487 49.0299 16.8333 48.9258 16.8984C48.8346 16.9635 48.7695 17.0482 48.7305 17.1523C48.9648 17.6602 49.2708 18.0443 49.6484 18.3047C50.026 18.5651 50.4492 18.7539 50.918 18.8711C51.3867 18.9883 51.8945 19.0534 52.4414 19.0664C52.9883 19.0794 53.5547 19.0859 54.1406 19.0859C54.2057 19.0729 54.2318 19.0404 54.2188 18.9883C54.2188 18.9232 54.2578 18.8971 54.3359 18.9102C54.5312 18.9753 54.694 19.0534 54.8242 19.1445C54.9544 19.2357 55.0781 19.3333 55.1953 19.4375C55.3125 19.5417 55.4232 19.6523 55.5273 19.7695C55.6445 19.8737 55.7747 19.9844 55.918 20.1016C55.8919 20.7135 55.7096 21.2148 55.3711 21.6055C55.0456 21.9831 54.6094 22.2891 54.0625 22.5234C53.3073 22.5495 52.6497 22.5299 52.0898 22.4648C51.5299 22.3997 50.9766 22.2565 50.4297 22.0352C50.3906 22.0221 50.3516 21.9831 50.3125 21.918C50.2865 21.8529 50.2604 21.8073 50.2344 21.7812C50.1302 21.7161 50.013 21.6901 49.8828 21.7031C49.7526 21.7161 49.6419 21.7031 49.5508 21.6641C49.4336 21.612 49.2383 21.4948 48.9648 21.3125C48.7044 21.1302 48.4635 20.9609 48.2422 20.8047C47.9688 20.5833 47.7018 20.3685 47.4414 20.1602C47.194 19.9388 46.9727 19.6979 46.7773 19.4375C46.7383 19.3724 46.6797 19.3398 46.6016 19.3398C46.5365 19.3398 46.4714 19.3203 46.4062 19.2812C45.9505 19.5677 45.5664 19.9258 45.2539 20.3555C44.9544 20.7721 44.6615 21.2018 44.375 21.6445C44.0885 22.0742 43.7826 22.4844 43.457 22.875C43.1445 23.2526 42.7474 23.5456 42.2656 23.7539C42.1224 23.7539 41.9987 23.7279 41.8945 23.6758C41.7904 23.6367 41.6927 23.5781 41.6016 23.5C41.5104 23.4349 41.4193 23.3698 41.3281 23.3047C41.237 23.2396 41.1328 23.194 41.0156 23.168C41.0156 22.9857 40.9766 22.8164 40.8984 22.6602C40.8333 22.4909 40.7617 22.3411 40.6836 22.2109C40.6185 22.0677 40.5664 21.931 40.5273 21.8008C40.5013 21.6706 40.5404 21.5404 40.6445 21.4102C40.5013 21.293 40.3646 21.1953 40.2344 21.1172C40.3255 21.026 40.3646 20.9414 40.3516 20.8633C40.3516 20.7852 40.332 20.707 40.293 20.6289C40.2539 20.5508 40.2214 20.4727 40.1953 20.3945C40.1823 20.3034 40.2083 20.2057 40.2734 20.1016C40.3255 20.0885 40.3451 20.0625 40.332 20.0234C40.332 19.9844 40.3516 19.9518 40.3906 19.9258ZM66.5234 17.6406C66.5104 17.7969 66.5234 17.9466 66.5625 18.0898C66.6016 18.2331 66.6471 18.3763 66.6992 18.5195C66.7643 18.6497 66.8229 18.7865 66.875 18.9297C66.9271 19.0729 66.9661 19.2161 66.9922 19.3594C67.0182 19.5417 67.0182 19.7435 66.9922 19.9648C66.9661 20.1732 66.9206 20.3815 66.8555 20.5898C66.7904 20.7852 66.7057 20.9674 66.6016 21.1367C66.4974 21.293 66.3737 21.4102 66.2305 21.4883C66.0482 21.7227 65.8268 21.9049 65.5664 22.0352C65.306 22.1654 65.0651 22.3216 64.8438 22.5039C64.7005 22.5951 64.5378 22.6602 64.3555 22.6992C64.1862 22.7383 64.0104 22.7773 63.8281 22.8164C63.6849 22.8945 63.5156 22.9792 63.3203 23.0703C63.125 23.1484 62.9232 23.2266 62.7148 23.3047C62.5065 23.3698 62.2982 23.4219 62.0898 23.4609C61.8815 23.487 61.6992 23.4935 61.543 23.4805C61.1523 23.6237 60.7682 23.7148 60.3906 23.7539C60.026 23.806 59.5964 23.7799 59.1016 23.6758C58.6328 23.7409 58.1966 23.7214 57.793 23.6172C57.4023 23.513 57.0508 23.3503 56.7383 23.1289C56.4388 22.8945 56.1719 22.6211 55.9375 22.3086C55.7161 21.9831 55.5339 21.6445 55.3906 21.293C55.2865 20.5508 55.3125 19.8802 55.4688 19.2812C55.625 18.6693 55.8464 18.1094 56.1328 17.6016C56.4323 17.0807 56.7708 16.6055 57.1484 16.1758C57.526 15.7331 57.8906 15.3034 58.2422 14.8867C58.3203 14.9128 58.3789 14.9128 58.418 14.8867C58.4701 14.8477 58.5156 14.8021 58.5547 14.75C58.5938 14.6849 58.6328 14.6263 58.6719 14.5742C58.724 14.5221 58.7826 14.4896 58.8477 14.4766C58.9388 14.2812 59.069 14.138 59.2383 14.0469C59.4206 13.9427 59.5638 13.7995 59.668 13.6172C59.7852 13.5911 59.8828 13.5521 59.9609 13.5C60.0391 13.4479 60.1107 13.3893 60.1758 13.3242C60.2539 13.2591 60.332 13.2005 60.4102 13.1484C60.4883 13.0833 60.5794 13.0378 60.6836 13.0117V12.7969C60.918 12.6927 61.0872 12.5755 61.1914 12.4453C61.3086 12.3021 61.4453 12.1328 61.6016 11.9375C61.7188 11.9245 61.8099 11.918 61.875 11.918C61.9531 11.918 62.0638 11.9049 62.207 11.8789C62.3112 11.6966 62.4023 11.5599 62.4805 11.4688C62.5716 11.3776 62.7018 11.2799 62.8711 11.1758C63.0273 11.2539 63.1966 11.306 63.3789 11.332C63.5742 11.3581 63.7435 11.4427 63.8867 11.5859C63.8997 11.7161 63.9388 11.8203 64.0039 11.8984C64.069 11.9635 64.1406 12.0286 64.2188 12.0938C64.2969 12.1458 64.3685 12.2044 64.4336 12.2695C64.5117 12.3346 64.5638 12.4258 64.5898 12.543C64.6419 12.556 64.6745 12.5495 64.6875 12.5234C64.7135 12.4974 64.7526 12.4909 64.8047 12.5039C64.8438 12.6862 64.8893 12.8099 64.9414 12.875C64.9935 12.9271 65.0456 13.0378 65.0977 13.207C65.0326 13.3372 64.9805 13.474 64.9414 13.6172C64.9154 13.7474 64.8372 13.8451 64.707 13.9102C64.694 14.0013 64.7201 14.0534 64.7852 14.0664C64.8503 14.0664 64.8893 14.099 64.9023 14.1641C64.9154 14.2812 64.8958 14.3659 64.8438 14.418C65.1562 14.9258 65.4362 15.4661 65.6836 16.0391C65.931 16.599 66.2109 17.1328 66.5234 17.6406ZM64.082 19.4961C64.1341 19.3529 64.1992 19.2357 64.2773 19.1445C64.3685 19.0534 64.4206 18.9167 64.4336 18.7344C64.3685 18.6302 64.3294 18.5521 64.3164 18.5C64.3034 18.4349 64.2969 18.3372 64.2969 18.207C64.0104 17.8034 63.763 17.3737 63.5547 16.918C63.3464 16.4492 63.112 16.013 62.8516 15.6094C62.8255 15.6615 62.7799 15.7135 62.7148 15.7656C62.6497 15.8177 62.5781 15.8047 62.5 15.7266C62.474 15.8307 62.4284 15.9089 62.3633 15.9609C62.2982 16 62.2266 16.0195 62.1484 16.0195C62.0703 16.0065 61.9857 15.987 61.8945 15.9609C61.8164 15.9219 61.7448 15.8763 61.6797 15.8242C61.3021 16.1237 60.9245 16.4167 60.5469 16.7031C60.1693 16.9896 59.8307 17.3216 59.5312 17.6992C59.4792 17.7253 59.4466 17.7383 59.4336 17.7383C59.4206 17.7253 59.3815 17.7318 59.3164 17.7578C59.2122 18.0052 59.082 18.2331 58.9258 18.4414C58.7826 18.6367 58.6393 18.8385 58.4961 19.0469C58.3529 19.2552 58.2292 19.4766 58.125 19.7109C58.0208 19.9453 57.9622 20.2188 57.9492 20.5312C58.1706 20.7135 58.431 20.8242 58.7305 20.8633C59.0299 20.9023 59.3359 20.9089 59.6484 20.8828C59.974 20.8568 60.2865 20.8177 60.5859 20.7656C60.8984 20.7005 61.1849 20.668 61.4453 20.668C61.9922 20.5378 62.4609 20.3685 62.8516 20.1602C63.2422 19.9388 63.6523 19.7174 64.082 19.4961ZM70.8594 21.4688C70.7161 21.9896 70.5859 22.3867 70.4688 22.6602C70.3646 22.9206 70.2018 23.194 69.9805 23.4805C69.8112 23.4544 69.694 23.474 69.6289 23.5391C69.5638 23.6042 69.4922 23.6628 69.4141 23.7148C69.2969 23.7409 69.2122 23.7409 69.1602 23.7148C69.1081 23.6888 69.0625 23.6562 69.0234 23.6172C68.9844 23.5911 68.9323 23.5586 68.8672 23.5195C68.8151 23.4935 68.7305 23.4805 68.6133 23.4805C68.5872 23.3763 68.5547 23.2786 68.5156 23.1875C68.4896 23.0964 68.4049 23.0638 68.2617 23.0898C68.2878 22.9857 68.2943 22.901 68.2812 22.8359C68.2682 22.7578 68.2487 22.6927 68.2227 22.6406C68.2096 22.5755 68.1966 22.5169 68.1836 22.4648C68.1706 22.3997 68.1771 22.3216 68.2031 22.2305C68.138 22.2305 68.0859 22.1849 68.0469 22.0938C68.0078 22.0026 67.9622 21.9115 67.9102 21.8203C67.9492 21.5859 67.9883 21.3646 68.0273 21.1562C68.0664 20.9479 68.112 20.7526 68.1641 20.5703C68.2292 20.388 68.2812 20.2057 68.3203 20.0234C68.3594 19.8411 68.3398 19.6523 68.2617 19.457C68.3138 19.4961 68.3529 19.4896 68.3789 19.4375C68.4049 19.3724 68.4245 19.2943 68.4375 19.2031C68.4505 19.099 68.457 19.0013 68.457 18.9102C68.457 18.806 68.4505 18.7214 68.4375 18.6562C68.5677 18.3177 68.6719 17.9727 68.75 17.6211C68.8411 17.2565 68.9193 16.8984 68.9844 16.5469C69.0625 16.1953 69.1406 15.8503 69.2188 15.5117C69.2969 15.1732 69.401 14.8607 69.5312 14.5742C69.6745 14.5482 69.8307 14.5677 70 14.6328C70.1823 14.6849 70.293 14.7565 70.332 14.8477C70.6706 14.5872 70.9701 14.2747 71.2305 13.9102C71.4909 13.5326 71.7578 13.168 72.0312 12.8164C72.3047 12.4648 72.6042 12.1523 72.9297 11.8789C73.2682 11.6055 73.6914 11.4427 74.1992 11.3906C74.4596 11.5859 74.7461 11.7878 75.0586 11.9961C75.3841 12.1914 75.651 12.4518 75.8594 12.7773C75.9635 12.8294 76.0482 12.888 76.1133 12.9531C76.1914 13.0052 76.2826 13.0638 76.3867 13.1289V13.3633C76.543 13.5065 76.6667 13.6758 76.7578 13.8711C76.862 14.0534 76.9531 14.2552 77.0312 14.4766C77.1094 14.6849 77.1875 14.8997 77.2656 15.1211C77.3438 15.3294 77.4349 15.5312 77.5391 15.7266C77.513 15.7917 77.5 15.8503 77.5 15.9023C77.5 15.9414 77.5065 15.987 77.5195 16.0391C77.5456 16.0911 77.5651 16.1432 77.5781 16.1953C77.5911 16.2474 77.5911 16.319 77.5781 16.4102C77.5391 16.9831 77.3503 17.4453 77.0117 17.7969C76.6862 18.1484 76.2891 18.4414 75.8203 18.6758C75.3516 18.8971 74.8503 19.0859 74.3164 19.2422C73.7826 19.3984 73.3008 19.5677 72.8711 19.75C72.8711 19.8021 72.8906 19.8281 72.9297 19.8281C72.9818 19.8281 73.0013 19.8607 72.9883 19.9258C73.3008 20.1211 73.5482 20.2773 73.7305 20.3945C73.9128 20.5117 74.082 20.6094 74.2383 20.6875C74.4076 20.7656 74.5833 20.8372 74.7656 20.9023C74.9609 20.9544 75.2279 21.0195 75.5664 21.0977C75.9049 21.1758 76.1654 21.2409 76.3477 21.293C76.543 21.332 76.7188 21.3711 76.875 21.4102C77.0312 21.4362 77.1875 21.4622 77.3438 21.4883C77.513 21.5013 77.7474 21.5208 78.0469 21.5469C78.1641 21.6641 78.2617 21.8073 78.3398 21.9766C78.431 22.1328 78.4896 22.2956 78.5156 22.4648C78.5417 22.6211 78.5482 22.7773 78.5352 22.9336C78.5221 23.0768 78.4766 23.194 78.3984 23.2852C78.4115 23.3242 78.4375 23.3438 78.4766 23.3438C78.5286 23.3307 78.5807 23.3307 78.6328 23.3438C78.5547 23.3958 78.4896 23.4609 78.4375 23.5391C78.3854 23.6172 78.3333 23.6953 78.2812 23.7734C78.2292 23.8516 78.1706 23.9167 78.1055 23.9688C78.0404 24.0339 77.9492 24.0729 77.832 24.0859C77.4284 24.2422 76.9206 24.2487 76.3086 24.1055C75.6966 23.9753 74.9219 23.7279 73.9844 23.3633C73.5156 23.181 73.1315 23.0247 72.832 22.8945C72.5456 22.7513 72.2917 22.6146 72.0703 22.4844C71.862 22.3411 71.6667 22.1914 71.4844 22.0352C71.3151 21.8789 71.1068 21.6901 70.8594 21.4688ZM73.6523 14.7695C73.5091 14.9779 73.3464 15.1667 73.1641 15.3359C72.9948 15.5052 72.8255 15.681 72.6562 15.8633C72.5 16.0326 72.3568 16.2279 72.2266 16.4492C72.0964 16.6576 72.0052 16.9049 71.9531 17.1914C72.4089 17.1393 72.8841 17.0156 73.3789 16.8203C73.8737 16.612 74.3424 16.4167 74.7852 16.2344C74.7331 15.8307 74.5898 15.5052 74.3555 15.2578C74.1341 15.0104 73.8997 14.8477 73.6523 14.7695ZM85.8984 11.3906C86.4453 11.4557 86.9336 11.5664 87.3633 11.7227C87.793 11.8789 88.1576 12.0872 88.457 12.3477C88.6654 12.6732 88.8607 13.0247 89.043 13.4023C89.2383 13.7799 89.3815 14.1771 89.4727 14.5938C89.5768 14.9974 89.6224 15.4141 89.6094 15.8438C89.6094 16.2734 89.5182 16.7096 89.3359 17.1523C88.9583 17.6211 88.4961 18.0052 87.9492 18.3047C87.4154 18.5911 86.8359 18.8255 86.2109 19.0078C85.5859 19.1901 84.9349 19.3464 84.2578 19.4766C83.5938 19.6068 82.9427 19.737 82.3047 19.8672C82.3177 20.1667 82.3177 20.4857 82.3047 20.8242C82.3047 21.1497 82.2721 21.4818 82.207 21.8203C82.1549 22.1458 82.0703 22.4648 81.9531 22.7773C81.8359 23.0898 81.6797 23.3763 81.4844 23.6367C81.263 23.6367 81.0352 23.6628 80.8008 23.7148C80.5664 23.7799 80.3581 23.832 80.1758 23.8711C80.0846 23.819 80 23.7669 79.9219 23.7148C79.8568 23.6758 79.7591 23.6497 79.6289 23.6367C79.6549 23.5065 79.6224 23.3763 79.5312 23.2461C79.4401 23.1029 79.349 22.9596 79.2578 22.8164C79.1667 22.6732 79.1016 22.5365 79.0625 22.4062C79.0365 22.276 79.1016 22.1523 79.2578 22.0352C79.1667 21.944 79.1211 21.8268 79.1211 21.6836C79.2122 21.5273 79.2904 21.3125 79.3555 21.0391C79.4336 20.7656 79.4922 20.4987 79.5312 20.2383C79.5833 19.9648 79.5964 19.7174 79.5703 19.4961C79.5443 19.2747 79.4141 19.112 79.1797 19.0078C79.1927 18.9818 79.2188 18.9688 79.2578 18.9688C79.2969 18.9688 79.3359 18.9622 79.375 18.9492C79.2708 18.8711 79.2057 18.7604 79.1797 18.6172C79.1667 18.474 79.1211 18.3503 79.043 18.2461C79.069 18.181 79.0885 18.1224 79.1016 18.0703C79.1146 18.0182 79.1602 17.9987 79.2383 18.0117C79.1992 17.7773 79.1992 17.556 79.2383 17.3477C79.2904 17.1393 79.362 16.944 79.4531 16.7617C79.5443 16.5664 79.6549 16.3776 79.7852 16.1953C79.9154 16.013 80.0391 15.8307 80.1562 15.6484C80.2474 15.6354 80.2995 15.6484 80.3125 15.6875C80.3385 15.7266 80.3841 15.7201 80.4492 15.668C80.6185 15.5378 80.7357 15.401 80.8008 15.2578C80.8659 15.1146 80.8984 14.9518 80.8984 14.7695C80.9896 14.4961 81.1003 14.2227 81.2305 13.9492C81.3607 13.6628 81.5039 13.4023 81.6602 13.168C81.8164 12.9336 81.9857 12.7253 82.168 12.543C82.3633 12.3607 82.5651 12.224 82.7734 12.1328C82.9297 12.0026 83.125 11.8854 83.3594 11.7812C83.5938 11.6641 83.8477 11.5794 84.1211 11.5273C84.3945 11.4622 84.668 11.4297 84.9414 11.4297C85.2279 11.4167 85.4883 11.4427 85.7227 11.5078C85.7878 11.5339 85.8203 11.5208 85.8203 11.4688C85.8333 11.4167 85.8594 11.3906 85.8984 11.3906ZM85.0977 16.0586C85.4232 15.9154 85.7682 15.8047 86.1328 15.7266C86.5104 15.6354 86.8229 15.4727 87.0703 15.2383C86.9141 15.0951 86.6862 14.9714 86.3867 14.8672C86.0872 14.75 85.7617 14.6784 85.4102 14.6523C85.0586 14.6263 84.7005 14.6589 84.3359 14.75C83.9844 14.8281 83.6784 14.9844 83.418 15.2188C83.3398 15.4531 83.2747 15.6419 83.2227 15.7852C83.1706 15.9154 83.099 16.0781 83.0078 16.2734C83.0339 16.3385 83.0729 16.3906 83.125 16.4297C83.1901 16.4557 83.2357 16.5013 83.2617 16.5664C83.5612 16.4102 83.8607 16.3255 84.1602 16.3125C84.4727 16.2865 84.7852 16.2018 85.0977 16.0586ZM98.9648 21.8594C98.8867 22.0807 98.7695 22.3086 98.6133 22.543C98.4701 22.7643 98.2943 22.9661 98.0859 23.1484C97.8906 23.3177 97.6693 23.4609 97.4219 23.5781C97.1745 23.6953 96.9141 23.7604 96.6406 23.7734C96.4714 23.7344 96.3542 23.6888 96.2891 23.6367C96.237 23.5977 96.1784 23.5586 96.1133 23.5195C96.0742 23.4935 96.0352 23.474 95.9961 23.4609C95.9701 23.4349 95.944 23.4154 95.918 23.4023L95.6836 23.3047L95.7617 23.0508C95.7878 22.9466 95.7812 22.8685 95.7422 22.8164C95.7031 22.7513 95.625 22.6667 95.5078 22.5625C95.4688 22.5234 95.4297 22.4844 95.3906 22.4453C95.3516 22.4062 95.319 22.3672 95.293 22.3281L94.9609 21.957L95.4883 21.8203C95.8138 21.7292 96.0286 21.612 96.1328 21.4688C96.25 21.3255 96.2956 21.0846 96.2695 20.7461C96.0091 20.694 95.7878 20.6875 95.6055 20.7266C95.4362 20.7656 95.2604 20.8112 95.0781 20.8633C94.8438 20.9284 94.6029 20.987 94.3555 21.0391C94.1211 21.0781 93.8607 21.0977 93.5742 21.0977C93.4701 21.0977 93.3724 21.0977 93.2812 21.0977C93.1901 21.0846 93.0924 21.0716 92.9883 21.0586L92.793 21.0195C92.7669 20.8763 92.7409 20.7982 92.7148 20.7852C92.6888 20.7591 92.6628 20.7331 92.6367 20.707C92.5716 20.6419 92.5 20.5573 92.4219 20.4531C92.3568 20.3359 92.3438 20.1927 92.3828 20.0234C92.3177 19.9062 92.2786 19.7891 92.2656 19.6719C92.1875 19.8281 92.1289 19.9909 92.0898 20.1602L92.0117 20.3555L91.8164 20.3945C91.7904 20.4076 91.7708 20.4401 91.7578 20.4922C91.7448 20.5312 91.7383 20.5638 91.7383 20.5898L91.6406 20.9219C91.6146 20.9479 91.5885 20.974 91.5625 21C91.5365 21.013 91.5104 21.0326 91.4844 21.0586C91.4583 21.1758 91.4258 21.293 91.3867 21.4102C91.3477 21.5273 91.3086 21.638 91.2695 21.7422C91.2044 21.9115 91.1458 22.0807 91.0938 22.25C91.0547 22.4062 91.0417 22.5625 91.0547 22.7188L90.9766 22.9336C90.9115 23.0117 90.8398 23.0768 90.7617 23.1289C90.6836 23.168 90.6055 23.207 90.5273 23.2461C90.5013 23.2721 90.4622 23.2982 90.4102 23.3242C90.3711 23.3372 90.3385 23.3503 90.3125 23.3633L90.2539 23.5781L90.0195 23.6172C89.8763 23.6432 89.7721 23.6628 89.707 23.6758C89.6549 23.6888 89.5898 23.6953 89.5117 23.6953L89.3164 23.6758C89.1732 23.5586 89.0625 23.4674 88.9844 23.4023C88.9062 23.3242 88.8151 23.2526 88.7109 23.1875C88.5938 23.0312 88.5286 22.9141 88.5156 22.8359C88.5026 22.7578 88.4896 22.6862 88.4766 22.6211C88.4505 22.543 88.4375 22.4779 88.4375 22.4258C88.4245 22.3737 88.4049 22.3346 88.3789 22.3086L88.125 22.0742L88.3398 21.8984L88.3594 21.5664C88.6198 20.9023 88.8932 20.2643 89.1797 19.6523C89.4792 19.0404 89.7852 18.4154 90.0977 17.7773C90.2018 17.569 90.2995 17.3607 90.3906 17.1523C90.4948 16.944 90.599 16.7357 90.7031 16.5273C90.6901 16.4883 90.6836 16.4427 90.6836 16.3906C90.6836 16.3385 90.6966 16.2799 90.7227 16.2148C90.8659 15.9935 90.9831 15.7982 91.0742 15.6289C91.1654 15.4466 91.2565 15.2643 91.3477 15.082C91.4518 14.8607 91.556 14.6458 91.6602 14.4375C91.7773 14.2292 91.9206 14.0143 92.0898 13.793L92.4023 13.6562C92.4414 13.6432 92.487 13.6302 92.5391 13.6172C92.5911 13.5911 92.6497 13.5781 92.7148 13.5781L93.0078 13.6172C93.3724 13.4479 93.6914 13.2135 93.9648 12.9141C94.2383 12.6016 94.5182 12.2305 94.8047 11.8008L95 11.5273L95.2539 11.6836C95.319 11.7227 95.4102 11.7617 95.5273 11.8008C95.6445 11.8268 95.7682 11.8594 95.8984 11.8984C96.1328 11.9505 96.3542 12.0091 96.5625 12.0742C96.7708 12.1393 96.9401 12.237 97.0703 12.3672C97.1484 12.5755 97.194 12.7318 97.207 12.8359C97.2201 12.9401 97.2396 13.0443 97.2656 13.1484C97.3047 13.3698 97.3372 13.5911 97.3633 13.8125C97.4023 14.0339 97.4284 14.2812 97.4414 14.5547C97.5065 14.776 97.5586 14.9974 97.5977 15.2188C97.6497 15.4271 97.6953 15.6419 97.7344 15.8633C97.7995 16.1758 97.8646 16.4818 97.9297 16.7812C97.9948 17.0677 98.0794 17.3411 98.1836 17.6016C98.2878 17.6016 98.3529 17.6081 98.3789 17.6211C98.444 17.5951 98.5091 17.5755 98.5742 17.5625C98.6523 17.5495 98.737 17.5365 98.8281 17.5234L99.043 17.5039L99.1211 17.6992C99.1341 17.7643 99.1992 17.8294 99.3164 17.8945C99.4857 17.9076 99.6094 17.9466 99.6875 18.0117C99.7656 18.0638 99.8372 18.1224 99.9023 18.1875C99.9544 18.2396 100.007 18.2786 100.059 18.3047L100.352 18.4219L100.195 18.7148C100.065 18.9492 99.8763 19.1771 99.6289 19.3984C99.3945 19.6068 99.1276 19.7826 98.8281 19.9258C98.8411 20.0039 98.8477 20.082 98.8477 20.1602C98.8607 20.2253 98.8802 20.2969 98.9062 20.375C98.9453 20.5964 98.9779 20.8242 99.0039 21.0586C99.0299 21.293 99.0299 21.5339 99.0039 21.7812L98.9648 21.8594ZM93.3203 18.4805C93.7109 18.4544 94.0625 18.4284 94.375 18.4023C94.7005 18.3633 95.0586 18.3047 95.4492 18.2266C95.3581 17.8359 95.2604 17.4323 95.1562 17.0156C95.0521 16.5859 94.9414 16.1628 94.8242 15.7461L94.707 15.9414C94.4466 16.2148 94.1927 16.5208 93.9453 16.8594C93.7109 17.1979 93.5091 17.5169 93.3398 17.8164C93.2617 17.9336 93.1836 18.0508 93.1055 18.168C93.0273 18.2852 92.9557 18.4023 92.8906 18.5195C92.9688 18.5065 93.0404 18.5 93.1055 18.5C93.1836 18.5 93.2552 18.4935 93.3203 18.4805ZM107.031 22.9922C106.836 22.3411 106.549 21.7161 106.172 21.1172C105.807 20.5182 105.456 20.0039 105.117 19.5742C104.583 19.9779 104.076 20.4271 103.594 20.9219C103.125 21.4036 102.695 21.9245 102.305 22.4844C102.279 22.7578 102.246 22.9857 102.207 23.168C102.168 23.3372 102.096 23.4805 101.992 23.5977C101.901 23.7148 101.777 23.8125 101.621 23.8906C101.478 23.9818 101.289 24.0729 101.055 24.1641C100.625 23.8516 100.312 23.4674 100.117 23.0117C99.9219 22.543 99.8958 22.0807 100.039 21.625C100.052 21.2995 100.13 20.9805 100.273 20.668C100.43 20.3555 100.612 20.0625 100.82 19.7891C101.042 19.5026 101.276 19.2357 101.523 18.9883C101.771 18.7279 102.005 18.487 102.227 18.2656C102.266 18.1354 102.337 18.0247 102.441 17.9336C102.559 17.8294 102.676 17.7318 102.793 17.6406C102.923 17.5495 103.047 17.4518 103.164 17.3477C103.294 17.2435 103.398 17.1198 103.477 16.9766C103.385 16.6771 103.21 16.3776 102.949 16.0781C102.689 15.7656 102.448 15.4466 102.227 15.1211C102.201 15.056 102.148 15.0365 102.07 15.0625C102.005 15.0885 101.96 15.082 101.934 15.043C101.96 14.8737 101.921 14.6914 101.816 14.4961C101.725 14.3008 101.608 14.1315 101.465 13.9883C101.504 13.8451 101.549 13.6758 101.602 13.4805C101.654 13.2721 101.641 13.0443 101.562 12.7969C101.562 12.6927 101.582 12.5951 101.621 12.5039C101.66 12.3997 101.699 12.3086 101.738 12.2305C101.777 12.1393 101.81 12.0547 101.836 11.9766C101.862 11.8854 101.855 11.8008 101.816 11.7227C101.986 11.6966 102.135 11.7031 102.266 11.7422C102.396 11.7812 102.52 11.8268 102.637 11.8789C102.754 11.931 102.858 11.9701 102.949 11.9961C103.053 12.0221 103.158 12.0156 103.262 11.9766C103.249 12.0417 103.249 12.0872 103.262 12.1133C103.275 12.1393 103.294 12.1589 103.32 12.1719C103.346 12.1849 103.372 12.2044 103.398 12.2305C103.424 12.2435 103.438 12.2695 103.438 12.3086C103.646 12.3737 103.874 12.5169 104.121 12.7383C104.368 12.9466 104.603 13.181 104.824 13.4414C105.059 13.7018 105.267 13.9622 105.449 14.2227C105.632 14.4831 105.768 14.6784 105.859 14.8086C106.172 14.6133 106.51 14.3854 106.875 14.125C107.24 13.8516 107.617 13.5716 108.008 13.2852C108.398 12.9987 108.789 12.7318 109.18 12.4844C109.583 12.224 109.974 12.0156 110.352 11.8594C110.573 11.9635 110.742 12.0938 110.859 12.25C110.99 12.3932 111.094 12.5495 111.172 12.7188C111.263 12.875 111.341 13.0443 111.406 13.2266C111.471 13.3958 111.562 13.5456 111.68 13.6758C111.576 13.8971 111.458 14.0859 111.328 14.2422C111.211 14.3854 111.126 14.5547 111.074 14.75C110.801 14.8672 110.475 15.043 110.098 15.2773C109.759 15.4857 109.342 15.7656 108.848 16.1172C108.366 16.4688 107.78 16.9375 107.09 17.5234C107.246 17.7057 107.376 17.8815 107.48 18.0508C107.585 18.2201 107.669 18.3633 107.734 18.4805C107.799 18.6237 107.858 18.7539 107.91 18.8711C108.027 18.9622 108.125 19.0664 108.203 19.1836C108.281 19.3008 108.353 19.4245 108.418 19.5547C108.496 19.6719 108.581 19.7891 108.672 19.9062C108.763 20.0104 108.88 20.0951 109.023 20.1602C109.102 20.5508 109.212 20.9023 109.355 21.2148C109.499 21.5143 109.564 21.8268 109.551 22.1523C109.46 22.4518 109.323 22.6992 109.141 22.8945C108.971 23.0898 108.848 23.2917 108.77 23.5C108.652 23.5391 108.535 23.5781 108.418 23.6172C108.301 23.6562 108.21 23.7148 108.145 23.793L107.031 22.9922ZM120.02 18.2266C120.007 18.2917 119.993 18.3503 119.98 18.4023C119.967 18.4414 119.954 18.4805 119.941 18.5195C119.928 18.5586 119.922 18.6107 119.922 18.6758C119.922 18.7279 119.922 18.7995 119.922 18.8906C119.531 19.5807 119.036 20.1602 118.438 20.6289C117.852 21.0977 117.201 21.5143 116.484 21.8789C115.781 22.2305 115.046 22.556 114.277 22.8555C113.509 23.1419 112.76 23.4544 112.031 23.793C111.719 23.7148 111.478 23.5846 111.309 23.4023C111.152 23.2201 111.029 23.0117 110.938 22.7773C110.859 22.5299 110.801 22.263 110.762 21.9766C110.736 21.6771 110.71 21.3711 110.684 21.0586C110.723 20.9154 110.775 20.7982 110.84 20.707C110.918 20.6029 110.957 20.4596 110.957 20.2773C111.061 19.9388 111.165 19.6068 111.27 19.2812C111.374 18.9557 111.439 18.6237 111.465 18.2852C111.504 18.181 111.576 18.1094 111.68 18.0703C111.745 17.4453 111.745 16.8138 111.68 16.1758C111.628 15.5247 111.523 14.9193 111.367 14.3594C111.38 14.2292 111.393 14.138 111.406 14.0859C111.432 14.0208 111.432 13.9753 111.406 13.9492C111.393 13.8451 111.426 13.793 111.504 13.793C111.595 13.793 111.686 13.793 111.777 13.793C111.777 13.5977 111.738 13.4023 111.66 13.207C111.595 13.0117 111.53 12.7904 111.465 12.543C111.556 12.3477 111.615 12.1589 111.641 11.9766C111.667 11.7812 111.725 11.612 111.816 11.4688C112.52 11.6901 113.19 11.957 113.828 12.2695C114.479 12.582 115.117 12.8099 115.742 12.9531C116.211 13.2917 116.693 13.6302 117.188 13.9688C117.682 14.2943 118.132 14.6589 118.535 15.0625C118.939 15.4531 119.277 15.9023 119.551 16.4102C119.824 16.918 119.98 17.5234 120.02 18.2266ZM115.391 19.3008C115.664 19.1966 115.931 19.0859 116.191 18.9688C116.465 18.8516 116.712 18.7214 116.934 18.5781C117.168 18.4219 117.376 18.2461 117.559 18.0508C117.741 17.8555 117.891 17.6211 118.008 17.3477C117.93 17.1914 117.826 17.0547 117.695 16.9375C117.565 16.8073 117.435 16.6901 117.305 16.5859C117.174 16.4688 117.044 16.3516 116.914 16.2344C116.797 16.1172 116.699 15.974 116.621 15.8047C116.452 15.7786 116.302 15.7331 116.172 15.668C116.042 15.5898 115.911 15.5182 115.781 15.4531C115.664 15.375 115.534 15.3034 115.391 15.2383C115.26 15.1732 115.104 15.1341 114.922 15.1211C114.635 14.9779 114.375 14.8737 114.141 14.8086C113.919 14.7435 113.75 14.6589 113.633 14.5547C113.542 14.5547 113.47 14.5742 113.418 14.6133C113.548 15.1081 113.646 15.5768 113.711 16.0195C113.776 16.4492 113.809 16.8854 113.809 17.3281C113.822 17.7578 113.802 18.2005 113.75 18.6562C113.698 19.112 113.626 19.6068 113.535 20.1406C113.665 20.1276 113.783 20.1016 113.887 20.0625C114.004 20.0104 114.115 19.9583 114.219 19.9062C114.336 19.8542 114.453 19.8086 114.57 19.7695C114.701 19.7174 114.85 19.6849 115.02 19.6719C115.059 19.5938 115.111 19.5286 115.176 19.4766C115.254 19.4245 115.326 19.3659 115.391 19.3008ZM131.035 12.5039C131.048 12.5951 131.048 12.6667 131.035 12.7188C131.035 12.7578 131.029 12.7969 131.016 12.8359C131.016 12.875 131.016 12.9206 131.016 12.9727C131.016 13.0117 131.029 13.0768 131.055 13.168C130.781 13.6107 130.462 13.9167 130.098 14.0859C129.746 14.2422 129.362 14.3594 128.945 14.4375C128.529 14.5026 128.099 14.5742 127.656 14.6523C127.227 14.7305 126.797 14.8997 126.367 15.1602C126.198 15.0951 126.042 15.0951 125.898 15.1602C125.768 15.2253 125.573 15.2448 125.312 15.2188C125.234 15.2969 125.137 15.3555 125.02 15.3945C124.902 15.4206 124.785 15.4531 124.668 15.4922C124.72 15.6094 124.74 15.7331 124.727 15.8633C124.727 15.9805 124.746 16.0781 124.785 16.1562C125.241 16.1953 125.742 16.1888 126.289 16.1367C126.849 16.0846 127.396 16.0521 127.93 16.0391C127.943 16.1042 127.936 16.1497 127.91 16.1758C127.884 16.1888 127.878 16.2214 127.891 16.2734C127.982 16.3385 128.073 16.4232 128.164 16.5273C128.255 16.6185 128.346 16.7096 128.438 16.8008C128.529 16.8919 128.62 16.9701 128.711 17.0352C128.815 17.0872 128.932 17.1068 129.062 17.0938C129.115 17.1979 129.147 17.3151 129.16 17.4453C129.186 17.5625 129.173 17.6862 129.121 17.8164C128.913 17.9596 128.704 18.1094 128.496 18.2656C128.288 18.4089 128.066 18.5391 127.832 18.6562C127.611 18.7734 127.37 18.8711 127.109 18.9492C126.862 19.0143 126.582 19.0404 126.27 19.0273C126.204 19.0273 126.152 19.0273 126.113 19.0273C126.087 19.0273 126.048 19.0078 125.996 18.9688C125.892 19.0339 125.742 19.0534 125.547 19.0273C125.365 19.0013 125.221 19.0208 125.117 19.0859C124.974 19.0208 124.798 18.9948 124.59 19.0078C124.395 19.0078 124.219 18.9818 124.062 18.9297C123.854 19.2031 123.665 19.4961 123.496 19.8086C123.327 20.1211 123.177 20.4531 123.047 20.8047C123.49 20.8698 123.854 20.8958 124.141 20.8828C124.44 20.8698 124.72 20.8503 124.98 20.8242C125.241 20.7852 125.508 20.7526 125.781 20.7266C126.055 20.6875 126.4 20.6745 126.816 20.6875C127.077 20.5443 127.383 20.4531 127.734 20.4141C128.099 20.362 128.431 20.2839 128.73 20.1797C128.835 20.2188 128.926 20.2904 129.004 20.3945C129.082 20.4857 129.154 20.5768 129.219 20.668C129.297 20.7461 129.375 20.8177 129.453 20.8828C129.531 20.9479 129.629 20.974 129.746 20.9609C129.798 21.013 129.831 21.0781 129.844 21.1562C129.87 21.2214 129.889 21.2865 129.902 21.3516C129.915 21.4167 129.935 21.4753 129.961 21.5273C130 21.5664 130.059 21.5794 130.137 21.5664C129.941 21.9961 129.714 22.3281 129.453 22.5625C129.206 22.7839 128.919 22.9531 128.594 23.0703C128.268 23.1875 127.904 23.2786 127.5 23.3438C127.109 23.4089 126.673 23.487 126.191 23.5781C126.074 23.6042 125.977 23.5977 125.898 23.5586C125.82 23.5326 125.729 23.5195 125.625 23.5195C125.326 23.5846 124.967 23.6432 124.551 23.6953C124.134 23.7474 123.711 23.7669 123.281 23.7539C122.852 23.7409 122.441 23.6823 122.051 23.5781C121.66 23.487 121.341 23.3177 121.094 23.0703C120.99 22.9792 120.918 22.875 120.879 22.7578C120.853 22.6276 120.768 22.5299 120.625 22.4648C120.612 22.2956 120.586 22.1068 120.547 21.8984C120.508 21.6901 120.469 21.4753 120.43 21.2539C120.391 21.0195 120.358 20.7917 120.332 20.5703C120.319 20.349 120.332 20.1471 120.371 19.9648C120.41 19.7695 120.488 19.5938 120.605 19.4375C120.736 19.2812 120.781 19.112 120.742 18.9297C120.807 18.9167 120.846 18.8841 120.859 18.832C120.872 18.7669 120.924 18.7409 121.016 18.7539C121.094 18.5195 121.178 18.2982 121.27 18.0898C121.361 17.8815 121.452 17.6797 121.543 17.4844C121.647 17.2891 121.745 17.0938 121.836 16.8984C121.94 16.6901 122.038 16.4622 122.129 16.2148C121.947 16.0456 121.81 15.8633 121.719 15.668C121.641 15.4596 121.582 15.2578 121.543 15.0625C121.504 14.8542 121.471 14.6458 121.445 14.4375C121.419 14.2161 121.374 13.9948 121.309 13.7734C121.439 13.5781 121.595 13.4219 121.777 13.3047C121.973 13.1745 122.181 13.0703 122.402 12.9922C122.624 12.9141 122.865 12.849 123.125 12.7969C123.385 12.7448 123.659 12.6862 123.945 12.6211C124.466 12.4518 124.928 12.3216 125.332 12.2305C125.749 12.1393 126.152 12.0677 126.543 12.0156C126.947 11.9505 127.363 11.8919 127.793 11.8398C128.223 11.7878 128.711 11.7096 129.258 11.6055C129.375 11.7227 129.486 11.7812 129.59 11.7812C129.642 11.6641 129.701 11.6315 129.766 11.6836C129.844 11.7227 129.876 11.6836 129.863 11.5664C129.993 11.7878 130.156 11.9766 130.352 12.1328C130.56 12.276 130.788 12.3997 131.035 12.5039ZM137.07 20.0625C137.057 20.2448 137.012 20.4206 136.934 20.5898C136.868 20.7461 136.784 20.9023 136.68 21.0586C136.576 21.2018 136.458 21.3451 136.328 21.4883C136.211 21.6185 136.094 21.7357 135.977 21.8398C136.016 22.0091 136.016 22.1393 135.977 22.2305C135.951 22.3086 135.944 22.4323 135.957 22.6016C135.762 23.1224 135.462 23.4674 135.059 23.6367C134.668 23.819 134.297 23.7865 133.945 23.5391C133.802 23.4349 133.678 23.3047 133.574 23.1484C133.483 22.9792 133.353 22.875 133.184 22.8359C133.223 22.6146 133.203 22.3932 133.125 22.1719C133.047 21.9505 132.962 21.8333 132.871 21.8203C132.832 21.5469 132.773 21.2539 132.695 20.9414C132.617 20.6289 132.546 20.3164 132.48 20.0039C132.415 19.6784 132.357 19.3659 132.305 19.0664C132.266 18.7539 132.253 18.4674 132.266 18.207C132.279 18.0768 132.253 17.9596 132.188 17.8555C132.135 17.7513 132.096 17.6276 132.07 17.4844C132.018 17.1849 131.999 16.8724 132.012 16.5469C132.038 16.2083 132.051 15.8893 132.051 15.5898C132.051 15.3034 132.031 14.9974 131.992 14.6719C131.966 14.3333 131.94 14.0143 131.914 13.7148C131.888 13.4023 131.875 13.1224 131.875 12.875C131.875 12.6146 131.908 12.4128 131.973 12.2695C132.051 12.1133 132.155 11.9896 132.285 11.8984C132.428 11.7943 132.559 11.6836 132.676 11.5664C132.962 11.5924 133.19 11.7096 133.359 11.918C133.529 12.1263 133.594 12.3216 133.555 12.5039C133.828 12.6732 134.043 12.8945 134.199 13.168C134.368 13.4284 134.499 13.7279 134.59 14.0664C134.694 14.3919 134.766 14.7435 134.805 15.1211C134.844 15.4857 134.876 15.8503 134.902 16.2148C134.928 16.5664 134.954 16.9049 134.98 17.2305C135.007 17.556 135.059 17.8359 135.137 18.0703C135.618 17.3802 136.022 16.7682 136.348 16.2344C136.673 15.6875 137.005 15.1667 137.344 14.6719C137.682 14.1771 138.06 13.6758 138.477 13.168C138.893 12.6602 139.434 12.0872 140.098 11.4492C140.228 11.4622 140.332 11.4883 140.41 11.5273C140.501 11.5664 140.579 11.599 140.645 11.625C140.71 11.651 140.788 11.6771 140.879 11.7031C140.97 11.7161 141.094 11.7096 141.25 11.6836C141.302 11.8138 141.341 11.9115 141.367 11.9766C141.393 12.0286 141.413 12.0872 141.426 12.1523C141.452 12.2044 141.478 12.276 141.504 12.3672C141.543 12.4583 141.602 12.5885 141.68 12.7578C141.719 12.7969 141.732 12.849 141.719 12.9141C141.706 12.9792 141.693 13.0443 141.68 13.1094C141.68 13.1615 141.68 13.2005 141.68 13.2266C141.68 13.2526 141.712 13.2526 141.777 13.2266C141.738 13.4089 141.667 13.5781 141.562 13.7344C141.471 13.8776 141.432 14.0534 141.445 14.2617C141.146 14.6523 140.814 15.056 140.449 15.4727C140.098 15.8893 139.74 16.319 139.375 16.7617C139.023 17.2044 138.685 17.6732 138.359 18.168C138.034 18.6497 137.754 19.1576 137.52 19.6914C137.454 19.6914 137.402 19.7109 137.363 19.75C137.337 19.7891 137.311 19.8346 137.285 19.8867C137.259 19.9258 137.227 19.9648 137.188 20.0039C137.161 20.043 137.122 20.0625 137.07 20.0625Z" fill="white"/>
</svg>
