<svg width="588" height="525" viewBox="0 0 588 525" fill="none" xmlns="http://www.w3.org/2000/svg">
<g opacity="0.5">
<path d="M37.9688 0.46875H2.03125C1.16699 0.46875 0.46875 1.16699 0.46875 2.03125V37.9688C0.46875 38.833 1.16699 39.5312 2.03125 39.5312H37.9688C38.833 39.5312 39.5312 38.833 39.5312 37.9688V2.03125C39.5312 1.16699 38.833 0.46875 37.9688 0.46875ZM20.0537 20.2979L10.6787 28.1592C10.4248 28.374 10.0391 28.1934 10.0391 27.8613V24.7998C10.0391 24.6875 10.0928 24.5752 10.1807 24.502L15.542 20L10.1807 15.498C10.1358 15.4626 10.0997 15.4173 10.0751 15.3656C10.0506 15.314 10.0382 15.2574 10.0391 15.2002V12.1387C10.0391 11.8066 10.4248 11.626 10.6787 11.8408L20.0537 19.6973C20.2441 19.8535 20.2441 20.1416 20.0537 20.2979V20.2979ZM29.9609 27.8613C29.9609 28.0762 29.7949 28.252 29.5947 28.252H20.5615C20.3613 28.252 20.1953 28.0762 20.1953 27.8613V25.5176C20.1953 25.3027 20.3613 25.127 20.5615 25.127H29.5947C29.7949 25.127 29.9609 25.3027 29.9609 25.5176V27.8613Z" fill="#5454D4"/>
</g>
<rect x="-0.707114" y="-1.22476" width="376.786" height="376.8" rx="23" transform="matrix(0.965923 0.258829 -0.258809 0.965928 146.661 0.141292)" stroke="#5454D4" stroke-width="2"/>
<rect x="-1.41423" y="-2.44951" width="378.786" height="378.8" rx="24" transform="matrix(0.965923 0.258829 -0.258809 0.965928 175.303 66.2475)" fill="#212121" fill-opacity="0.8"/>
<g opacity="0.7">
<path d="M343.493 144.119C343.636 144.037 343.761 143.928 343.861 143.797C343.961 143.667 344.034 143.518 344.077 143.359C344.119 143.201 344.13 143.035 344.109 142.872C344.087 142.709 344.034 142.552 343.952 142.41C343.869 142.267 343.76 142.143 343.63 142.043C343.499 141.943 343.35 141.869 343.192 141.827C343.033 141.784 342.867 141.773 342.704 141.795C342.541 141.816 342.384 141.869 342.242 141.952L331.525 148.139C331.383 148.221 331.258 148.33 331.158 148.461C331.058 148.591 330.984 148.74 330.942 148.899C330.899 149.057 330.888 149.223 330.91 149.386C330.931 149.549 330.985 149.706 331.067 149.848L337.254 160.565C337.42 160.852 337.694 161.062 338.014 161.148C338.335 161.234 338.677 161.189 338.964 161.023C339.252 160.857 339.461 160.584 339.547 160.263C339.633 159.943 339.588 159.601 339.422 159.313L333.858 149.68L343.493 144.119ZM353.858 146.897C353.692 146.609 353.647 146.267 353.733 145.947C353.819 145.626 354.028 145.353 354.316 145.187C354.603 145.021 354.945 144.976 355.266 145.062C355.586 145.148 355.86 145.358 356.026 145.645L362.213 156.361C362.295 156.504 362.349 156.661 362.37 156.824C362.392 156.987 362.381 157.153 362.338 157.311C362.296 157.47 362.222 157.619 362.122 157.749C362.022 157.88 361.897 157.989 361.755 158.071L351.038 164.258C350.751 164.424 350.409 164.469 350.088 164.383C349.768 164.297 349.494 164.088 349.328 163.8C349.163 163.513 349.118 163.171 349.203 162.851C349.289 162.53 349.499 162.257 349.787 162.091L359.422 156.53L353.858 146.897Z" fill="white"/>
</g>
<path opacity="0.7" d="M237.383 219.768C236.743 219.138 236.326 218.379 236.133 217.492C235.939 216.604 235.912 215.801 236.05 215.084C236.287 214.5 236.576 214.079 236.915 213.819C237.235 213.528 237.586 213.325 237.967 213.211C238.355 213.073 238.738 213 239.117 212.994C239.503 212.962 239.87 212.953 240.217 212.965L240.732 213.305C240.824 213.465 240.92 213.612 241.019 213.746C241.143 213.887 241.254 214.025 241.353 214.159C241.631 214.126 241.823 214.015 241.927 213.828C242.056 213.647 242.186 213.466 242.315 213.285C242.465 213.028 242.627 212.775 242.802 212.525C242.976 212.275 243.176 212.032 243.401 211.796C243.437 211.563 243.503 211.365 243.601 211.203C243.698 211.04 243.789 210.903 243.873 210.79C243.756 210.624 243.66 210.531 243.584 210.511C243.541 210.472 243.45 210.407 243.313 210.317C243.237 210.296 243.162 210.276 243.086 210.256C243.018 210.211 242.936 210.162 242.842 210.11C242.539 209.732 242.348 209.438 242.27 209.228C242.223 209 242.164 208.769 242.092 208.534C242.02 208.299 241.954 208.092 241.894 207.914C241.834 207.736 241.758 207.568 241.665 207.408L241.294 206.985L241.641 206.593C241.705 206.556 241.747 206.5 241.767 206.425C241.794 206.324 241.781 206.172 241.728 205.969C241.74 205.622 241.791 205.38 241.882 205.242L242.079 204.81C242.418 204.55 242.607 204.398 242.645 204.355L243.124 204.079C243.743 204.083 244.378 204.078 245.029 204.063C245.686 204.024 246.331 203.981 246.964 203.935C247.596 203.889 248.241 203.846 248.899 203.806C249.557 203.767 250.207 203.752 250.852 203.763C251.1 203.641 251.341 203.598 251.574 203.633C251.839 203.65 252.075 203.673 252.283 203.702C252.459 203.749 252.626 203.78 252.784 203.796C252.942 203.811 253.072 203.778 253.174 203.698C253.642 203.662 254.091 203.647 254.52 203.654C255.329 203.655 256.387 203.683 257.693 203.736C259 203.79 260.437 203.959 262.005 204.245L262.808 204.419C262.952 204.485 263.1 204.538 263.251 204.578C263.408 204.594 263.563 204.621 263.714 204.662C265.022 205.012 265.782 205.647 265.993 206.567C266.211 206.76 266.394 206.984 266.541 207.239C266.695 207.469 266.837 207.696 266.966 207.919C267.058 208.079 267.141 208.222 267.214 208.35C267.295 208.452 267.366 208.539 267.428 208.609L267.649 208.992C267.764 209.67 267.656 210.274 267.325 210.806C267.093 211.067 266.882 211.199 266.692 211.203C266.503 211.206 266.313 211.209 266.124 211.212L265.562 211.345C265.242 211.232 264.994 211.152 264.818 211.105C264.667 211.064 264.491 211.017 264.29 210.963C263.535 210.761 262.641 210.575 261.608 210.406C260.607 210.219 259.567 210.075 258.488 209.975C257.417 209.849 256.357 209.781 255.308 209.77C254.267 209.733 253.344 209.756 252.54 209.837C252.299 209.934 251.997 210.002 251.637 210.04C251.554 210.045 251.424 210.077 251.247 210.137C251.218 210.345 251.164 210.547 251.085 210.741C251.012 210.91 250.928 211.076 250.83 211.239C250.771 211.358 250.709 211.49 250.643 211.634C250.61 211.76 250.56 211.895 250.494 212.039C249.798 212.526 249.347 213.201 249.143 214.063L248.854 214.389C248.726 214.463 248.597 214.59 248.468 214.771C248.371 214.934 248.32 215.123 248.316 215.337L248.346 215.831C248.863 215.915 249.367 215.996 249.858 216.074C250.381 216.133 250.93 216.199 251.503 216.272C252.241 216.335 252.973 216.423 253.697 216.537C254.454 216.631 255.222 216.783 256.002 216.992L257.473 217.387L257.043 217.635L257.447 217.784L257.059 218.327C257.215 218.45 257.324 218.546 257.386 218.617C257.48 218.669 257.558 218.73 257.62 218.801L257.783 219.249C257.888 219.358 257.968 219.514 258.021 219.717C258.082 219.895 258.087 220.126 258.038 220.409L257.824 220.756L255.444 222.545L255.137 222.786L254.79 222.572C254.318 222.419 253.852 222.348 253.391 222.359C253.176 222.355 252.945 222.361 252.699 222.376C252.459 222.365 252.226 222.33 251.999 222.269C251.369 222.208 250.842 222.161 250.419 222.129C250.003 222.071 249.588 222.014 249.172 221.956C248.591 221.908 248.023 221.864 247.468 221.823C246.945 221.764 246.433 221.762 245.933 221.816C245.65 221.767 245.483 221.736 245.433 221.723C245.389 221.684 245.342 221.658 245.292 221.645C245.04 221.577 244.779 221.547 244.507 221.556C244.235 221.564 243.976 221.575 243.729 221.59C243.545 221.675 243.407 221.787 243.316 221.924C243.232 222.036 243.145 222.161 243.054 222.299C242.957 222.461 242.834 222.617 242.686 222.766C242.57 222.897 242.426 223.033 242.253 223.176L242.109 223.865C241.869 223.855 241.746 223.862 241.739 223.887C241.739 223.887 241.726 223.884 241.701 223.877C241.647 224.078 241.559 224.257 241.436 224.413C241.339 224.575 241.245 224.725 241.154 224.863C241.077 224.95 241.015 225.028 240.97 225.097C240.925 225.165 240.892 225.237 240.872 225.313C241.002 225.833 240.926 226.366 240.646 226.91C240.417 227.361 240.114 227.739 239.736 228.042C239.365 228.32 238.964 228.509 238.533 228.609C238.117 228.551 237.818 228.458 237.637 228.329C237.481 228.206 237.313 228.08 237.132 227.951C237.019 227.867 236.904 227.795 236.785 227.736C236.672 227.652 236.557 227.581 236.438 227.522L236.086 227.023C236.051 226.852 236 226.69 235.933 226.537C235.873 226.36 235.813 226.182 235.753 226.004C235.674 225.794 235.596 225.584 235.517 225.374C235.438 225.165 235.379 224.933 235.339 224.68C235.399 223.752 235.557 223.013 235.812 222.461C236.1 221.891 236.422 221.344 236.778 220.819C236.882 220.631 236.983 220.456 237.081 220.294C237.178 220.131 237.279 219.956 237.383 219.768ZM263.021 230.641C262.474 231.573 262.017 232.273 261.649 232.741C261.313 233.19 260.857 233.634 260.281 234.073C259.968 233.935 259.731 233.912 259.572 234.004C259.412 234.096 259.244 234.172 259.066 234.232C258.826 234.222 258.662 234.178 258.575 234.101C258.488 234.023 258.417 233.937 258.362 233.841C258.3 233.771 258.216 233.681 258.11 233.572C258.023 233.494 257.867 233.426 257.64 233.365C257.644 233.15 257.631 232.945 257.603 232.748C257.6 232.559 257.453 232.452 257.163 232.428C257.267 232.24 257.324 232.08 257.332 231.948C257.348 231.79 257.344 231.654 257.32 231.54C257.329 231.408 257.334 231.288 257.336 231.18C257.344 231.048 257.397 230.9 257.495 230.738C257.369 230.704 257.292 230.589 257.264 230.393C257.236 230.196 257.195 229.997 257.141 229.794C257.338 229.361 257.528 228.954 257.711 228.571C257.895 228.189 258.084 227.836 258.279 227.51C258.499 227.192 258.694 226.867 258.864 226.535C259.034 226.203 259.094 225.828 259.044 225.41C259.124 225.513 259.203 225.52 259.28 225.433C259.364 225.321 259.442 225.18 259.515 225.011C259.594 224.816 259.657 224.631 259.704 224.455C259.758 224.254 259.789 224.087 259.798 223.954C260.225 223.368 260.604 222.755 260.937 222.116C261.302 221.459 261.638 220.808 261.946 220.162C262.279 219.524 262.609 218.897 262.935 218.284C263.261 217.67 263.624 217.12 264.024 216.634C264.314 216.658 264.606 216.777 264.899 216.99C265.224 217.185 265.401 217.381 265.429 217.577C266.218 217.249 266.958 216.801 267.65 216.231C268.349 215.637 269.053 215.07 269.763 214.533C270.474 213.995 271.214 213.546 271.984 213.187C272.78 212.834 273.682 212.738 274.69 212.901C275.092 213.413 275.54 213.951 276.036 214.515C276.564 215.061 276.945 215.702 277.179 216.439C277.353 216.593 277.486 216.75 277.578 216.91C277.702 217.051 277.848 217.211 278.016 217.391L277.894 217.844C278.122 218.201 278.273 218.592 278.348 219.017C278.455 219.423 278.527 219.86 278.563 220.328C278.606 220.771 278.646 221.226 278.682 221.695C278.725 222.137 278.797 222.575 278.897 223.006C278.813 223.118 278.758 223.225 278.731 223.325C278.711 223.401 278.699 223.492 278.698 223.599C278.721 223.713 278.732 223.824 278.73 223.932C278.728 224.039 278.691 224.177 278.619 224.347C278.247 225.433 277.643 226.228 276.807 226.732C275.996 227.243 275.077 227.603 274.05 227.814C273.03 227.999 271.964 228.104 270.852 228.129C269.739 228.155 268.721 228.232 267.797 228.362C267.77 228.463 267.794 228.523 267.869 228.543C267.97 228.57 267.991 228.643 267.932 228.762C268.435 229.301 268.832 229.731 269.123 230.052C269.415 230.373 269.691 230.649 269.953 230.881C270.239 231.12 270.542 231.349 270.86 231.569C271.21 231.771 271.692 232.035 272.306 232.361C272.92 232.687 273.389 232.948 273.714 233.143C274.071 233.319 274.391 233.486 274.672 233.642C274.961 233.773 275.249 233.904 275.537 234.035C275.858 234.148 276.3 234.307 276.865 234.513C277.031 234.8 277.146 235.127 277.209 235.494C277.304 235.843 277.333 236.188 277.296 236.529C277.265 236.844 277.197 237.149 277.091 237.444C276.992 237.714 276.843 237.917 276.645 238.053C276.65 238.135 276.69 238.186 276.765 238.206C276.873 238.208 276.973 238.235 277.067 238.287C276.889 238.347 276.73 238.439 276.589 238.563C276.448 238.687 276.307 238.811 276.166 238.935C276.025 239.059 275.878 239.155 275.725 239.222C275.565 239.314 275.369 239.342 275.136 239.306C274.275 239.399 273.291 239.149 272.183 238.556C271.068 237.987 269.699 237.108 268.077 235.919C267.266 235.324 266.605 234.823 266.093 234.417C265.614 233.992 265.194 233.596 264.834 233.23C264.506 232.845 264.206 232.455 263.935 232.059C263.689 231.669 263.384 231.197 263.021 230.641ZM271.884 219.145C271.499 219.473 271.087 219.754 270.648 219.986C270.233 220.226 269.815 220.478 269.394 220.742C269.004 220.988 268.626 221.292 268.26 221.652C267.901 221.987 267.597 222.418 267.348 222.944C268.255 223.079 269.237 223.086 270.294 222.965C271.358 222.819 272.365 222.684 273.314 222.561C273.423 221.755 273.314 221.052 272.99 220.452C272.69 219.86 272.322 219.424 271.884 219.145ZM301.828 233.113C301.722 233.408 301.67 233.704 301.671 234.001C301.672 234.298 301.686 234.599 301.713 234.902C301.771 235.187 301.814 235.482 301.84 235.786C301.867 236.089 301.868 236.386 301.844 236.676C301.8 237.042 301.695 237.432 301.531 237.846C301.372 238.235 301.177 238.614 300.943 238.983C300.716 239.326 300.458 239.635 300.169 239.908C299.887 240.156 299.588 240.318 299.27 240.395C298.797 240.753 298.275 240.991 297.705 241.107C297.134 241.224 296.588 241.401 296.066 241.639C295.742 241.741 295.394 241.782 295.021 241.764C294.674 241.751 294.314 241.736 293.942 241.717C293.625 241.794 293.254 241.87 292.83 241.945C292.412 241.994 291.981 242.041 291.539 242.084C291.102 242.102 290.673 242.095 290.25 242.062C289.834 242.005 289.479 241.923 289.184 241.817C288.355 241.891 287.566 241.869 286.816 241.749C286.085 241.661 285.268 241.388 284.366 240.93C283.427 240.814 282.594 240.55 281.868 240.14C281.168 239.736 280.573 239.24 280.084 238.651C279.627 238.043 279.252 237.376 278.961 236.651C278.702 235.908 278.525 235.16 278.431 234.406C278.614 232.919 279.011 231.637 279.623 230.56C280.242 229.459 280.959 228.492 281.775 227.659C282.623 226.808 283.523 226.065 284.475 225.431C285.434 224.771 286.361 224.129 287.256 223.506C287.393 223.597 287.506 223.628 287.595 223.597C287.716 223.549 287.828 223.484 287.93 223.404C288.039 223.299 288.145 223.206 288.247 223.125C288.375 223.052 288.505 223.019 288.638 223.027C288.915 222.697 289.24 222.488 289.615 222.4C290.021 222.293 290.371 222.09 290.667 221.792C290.907 221.802 291.116 221.777 291.294 221.717C291.472 221.657 291.64 221.581 291.8 221.489C291.984 221.403 292.166 221.331 292.344 221.271C292.528 221.185 292.728 221.144 292.943 221.148L293.054 220.733C293.56 220.653 293.948 220.514 294.217 220.317C294.517 220.101 294.869 219.844 295.272 219.548C295.505 219.583 295.685 219.618 295.81 219.652C295.961 219.692 296.182 219.724 296.472 219.748C296.768 219.45 297.014 219.233 297.213 219.097C297.436 218.968 297.738 218.847 298.119 218.734C298.38 218.965 298.68 219.154 299.019 219.298C299.383 219.45 299.666 219.701 299.869 220.052C299.826 220.31 299.848 220.531 299.933 220.716C300.025 220.875 300.13 221.038 300.247 221.205C300.371 221.346 300.479 221.496 300.571 221.655C300.688 221.822 300.742 222.025 300.731 222.264C300.825 222.317 300.892 222.321 300.93 222.277C300.994 222.24 301.073 222.248 301.167 222.3C301.148 222.673 301.172 222.935 301.239 223.088C301.312 223.215 301.356 223.456 301.369 223.81C301.176 224.028 301.004 224.265 300.855 224.522C300.737 224.76 300.535 224.908 300.25 224.966C300.178 225.136 300.201 225.25 300.32 225.309C300.446 225.342 300.505 225.425 300.496 225.558C300.461 225.791 300.379 225.944 300.251 226.018C300.592 227.161 300.853 228.35 301.035 229.585C301.223 230.794 301.487 231.97 301.828 233.113ZM296.151 235.434C296.326 235.184 296.512 234.992 296.711 234.856C296.934 234.727 297.105 234.49 297.225 234.144C297.153 233.91 297.118 233.738 297.12 233.631C297.128 233.499 297.166 233.306 297.234 233.055C296.889 232.127 296.634 231.169 296.467 230.18C296.307 229.167 296.08 228.203 295.786 227.288C295.709 227.376 295.594 227.453 295.441 227.52C295.288 227.586 295.157 227.524 295.046 227.333C294.942 227.521 294.814 227.648 294.661 227.715C294.515 227.757 294.366 227.757 294.215 227.717C294.071 227.651 293.918 227.57 293.755 227.472C293.625 227.356 293.51 227.231 293.411 227.097C292.526 227.48 291.645 227.851 290.768 228.208C289.89 228.566 289.064 229.033 288.29 229.607C288.176 229.63 288.106 229.639 288.081 229.632C288.063 229.6 287.984 229.592 287.845 229.609C287.515 230.033 287.146 230.406 286.736 230.727C286.358 231.031 285.977 231.346 285.593 231.675C285.208 232.003 284.855 232.367 284.532 232.765C284.209 233.164 283.955 233.662 283.768 234.259C284.101 234.726 284.547 235.075 285.105 235.305C285.663 235.536 286.251 235.706 286.868 235.818C287.511 235.936 288.135 236.022 288.74 236.077C289.378 236.113 289.948 236.198 290.451 236.333C291.575 236.365 292.568 236.28 293.43 236.08C294.3 235.855 295.207 235.639 296.151 235.434ZM310.672 240.255C310.432 240.245 310.231 240.339 310.07 240.538C309.915 240.713 309.758 240.9 309.596 241.099C309.46 241.305 309.315 241.495 309.16 241.67C309.038 241.826 308.888 241.88 308.712 241.833C308.633 242.027 308.51 242.183 308.344 242.3C308.203 242.424 308.059 242.561 307.911 242.71C307.77 242.834 307.647 242.99 307.543 243.178C307.446 243.34 307.413 243.561 307.447 243.839C307.205 243.936 307.022 244.116 306.897 244.38C306.773 244.643 306.639 244.89 306.496 245.121C306.379 245.359 306.221 245.546 306.023 245.682C305.825 245.818 305.528 245.819 305.132 245.686C305.03 245.766 305 245.826 305.044 245.864C305.087 245.903 305.101 246.001 305.086 246.159C304.823 246.034 304.606 245.99 304.435 246.025C304.282 246.092 304.102 246.111 303.894 246.082C303.456 245.803 303.124 245.431 302.898 244.966C302.698 244.508 302.532 244.019 302.402 243.498C302.304 242.96 302.218 242.425 302.145 241.893C302.097 241.368 302.032 240.905 301.95 240.506C302.1 240.25 302.183 239.989 302.2 239.724C302.224 239.434 302.197 239.184 302.118 238.974C304.052 236.688 306.145 234.257 308.4 231.679C310.654 229.102 312.823 226.542 314.906 224C315.424 224.381 315.919 224.797 316.391 225.247C316.896 225.679 317.324 226.144 317.676 226.643C318.052 227.148 318.337 227.696 318.529 228.287C318.728 228.853 318.797 229.451 318.736 230.081C318.645 230.219 318.565 230.265 318.497 230.219C318.46 230.156 318.406 230.155 318.336 230.217C318.403 230.369 318.429 230.471 318.416 230.521C318.427 230.578 318.414 230.629 318.375 230.672C318.362 230.723 318.342 230.798 318.315 230.899C318.294 230.974 318.302 231.097 318.337 231.269C318.243 231.216 318.164 231.209 318.1 231.246C318.062 231.289 317.986 231.269 317.874 231.185C317.9 231.489 317.865 231.722 317.767 231.884C317.695 232.054 317.601 232.204 317.485 232.334C317.376 232.44 317.273 232.574 317.175 232.737C317.084 232.874 317.043 233.079 317.051 233.35C316.976 233.33 316.906 233.338 316.842 233.375C316.81 233.394 316.775 233.425 316.736 233.468C316.705 233.487 316.657 233.514 316.593 233.551C316.561 233.57 316.511 233.556 316.442 233.511C316.369 234.084 316.246 234.644 316.073 235.191C315.899 235.738 315.722 236.297 315.542 236.869C315.394 237.422 315.248 238.017 315.105 238.652C314.968 239.263 314.888 239.915 314.863 240.61C315.91 240.324 316.809 239.837 317.56 239.148C318.336 238.467 319.025 237.654 319.629 236.71C320.257 235.773 320.818 234.737 321.311 233.602C321.804 232.467 322.316 231.31 322.847 230.132C323.134 229.966 323.385 229.736 323.598 229.443C323.811 229.15 324.016 228.84 324.211 228.515C324.412 228.165 324.611 227.827 324.806 227.502C325.007 227.152 325.224 226.846 325.456 226.584C325.82 226.736 326.1 226.946 326.298 227.214C326.528 227.465 326.725 227.733 326.891 228.02C327.063 228.282 327.248 228.547 327.446 228.816C327.65 229.059 327.935 229.257 328.298 229.408C328.486 229.917 328.651 230.406 328.795 230.876C328.939 231.346 328.987 231.817 328.942 232.29C328.762 232.458 328.601 232.657 328.458 232.888C328.34 233.127 328.21 233.361 328.067 233.593C327.924 233.824 327.759 234.036 327.573 234.229C327.393 234.396 327.17 234.525 326.903 234.615C326.652 235.249 326.39 235.826 326.116 236.346C325.874 236.847 325.619 237.345 325.352 237.839C325.11 238.341 324.873 238.87 324.643 239.429C324.419 239.962 324.229 240.571 324.072 241.257C323.716 241.782 323.337 242.341 322.935 242.934C322.534 243.528 322.199 244.072 321.932 244.566C321.442 244.785 321.023 245.091 320.675 245.483C320.327 245.875 319.967 246.264 319.594 246.649C319.467 246.723 319.397 246.731 319.385 246.674C319.374 246.617 319.296 246.556 319.152 246.49C319.15 246.598 319.13 246.673 319.091 246.717C319.052 246.76 319.001 246.8 318.937 246.837C318.905 246.856 318.867 246.899 318.821 246.968C318.801 247.043 318.799 247.151 318.816 247.29C318.423 247.347 318.052 247.476 317.701 247.679C317.35 247.881 316.981 248.052 316.593 248.191C316.23 248.336 315.813 248.386 315.34 248.34C314.892 248.301 314.35 248.061 313.713 247.621C312.883 246.59 312.198 245.476 311.656 244.28C311.139 243.09 310.811 241.748 310.672 240.255ZM349.238 238.497C348.609 238.328 347.916 238.197 347.16 238.102C346.41 237.982 345.67 237.878 344.938 237.79C344.415 237.73 343.908 237.662 343.416 237.584C342.95 237.513 342.525 237.44 342.141 237.364C341.816 237.87 341.509 238.313 341.218 238.694C340.928 239.074 340.628 239.439 340.319 239.787C340.003 240.161 339.696 240.55 339.399 240.956C339.133 241.343 338.858 241.768 338.572 242.231C338.213 242.566 337.898 242.886 337.627 243.191C337.389 243.477 337.162 243.821 336.947 244.222C336.544 244.518 336.209 244.86 335.944 245.247C335.685 245.609 335.478 245.931 335.321 246.213L335.049 246.625C334.858 246.735 334.736 246.838 334.684 246.932C334.638 247 334.555 247.059 334.434 247.107C334.335 247.377 334.173 247.63 333.948 247.867C333.864 247.979 333.792 248.095 333.734 248.214C333.681 248.308 333.649 248.38 333.635 248.43C333.568 248.681 333.461 248.828 333.315 248.87C333.307 249.002 333.269 249.141 333.204 249.285C333.145 249.404 333.086 249.523 333.027 249.642C332.871 249.924 332.782 250.156 332.76 250.339C332.808 250.46 332.848 250.564 332.878 250.653C332.933 250.749 332.956 250.863 332.948 250.996C333.072 251.137 333.168 251.23 333.237 251.275C333.317 251.378 333.444 251.506 333.619 251.661L333.857 252.129C333.788 252.892 333.519 253.44 333.053 253.774C332.547 254.151 331.842 254.218 330.936 253.975L330.483 253.854C330.391 253.694 330.343 253.573 330.338 253.491C330.157 253.362 330.01 253.255 329.898 253.171C329.786 253.087 329.699 252.956 329.639 252.778C329.353 252.54 329.122 252.343 328.948 252.189L328.659 251.909C328.733 251.632 328.774 251.481 328.78 251.456C328.665 251.183 328.594 250.894 328.567 250.59C328.566 250.293 328.577 250 328.601 249.71C328.612 249.47 328.606 249.239 328.584 249.018C328.588 248.803 328.56 248.607 328.5 248.429C328.84 246.956 329.309 245.761 329.905 244.842C330.502 243.924 331.101 243.046 331.703 242.21C332.039 241.761 332.375 241.312 332.711 240.863C333.054 240.388 333.375 239.895 333.674 239.382L334.114 239.095C334.398 238.74 334.624 238.45 334.792 238.225C334.992 237.982 335.192 237.739 335.392 237.496C335.515 237.341 335.621 237.194 335.712 237.057C335.835 236.901 335.938 236.767 336.022 236.654C335.871 236.614 335.729 236.589 335.597 236.581C335.471 236.547 335.342 236.526 335.21 236.517C335.052 236.502 334.907 236.49 334.774 236.482C334.648 236.448 334.523 236.414 334.397 236.381C334.221 236.333 334.098 236.287 334.03 236.242C333.719 236.293 333.401 236.275 333.074 236.188L332.696 236.087C332.621 236.066 332.545 236.046 332.47 236.026C332.426 235.987 332.379 235.961 332.329 235.948C332.078 235.88 331.866 235.864 331.695 235.899C331.393 235.818 331.104 235.741 330.827 235.667L330.45 235.566C330.4 235.552 330.333 235.548 330.251 235.553C330.176 235.533 330.113 235.516 330.063 235.502C329.886 235.455 329.701 235.392 329.507 235.313C329.319 235.209 329.129 235.063 328.936 234.877C328.742 234.394 328.598 234.126 328.504 234.074L328.286 233.53C328.301 233.372 328.301 233.224 328.284 233.085C328.274 232.92 328.268 232.743 328.264 232.554C328.231 232.275 328.201 231.984 328.175 231.68C328.18 231.358 328.237 230.996 328.345 230.594C328.424 230.399 328.515 230.262 328.617 230.181C328.719 230.101 328.806 230.03 328.876 229.968L329.141 229.432L329.622 229.601L330.678 229.884C331.483 230.1 332.307 230.294 333.151 230.466C334.001 230.613 334.877 230.767 335.777 230.927C336.294 231.012 336.81 231.096 337.327 231.181C337.869 231.272 338.423 231.366 338.99 231.464C339.151 231.265 339.309 231.078 339.464 230.904L339.892 230.816C340.351 230.912 340.649 231.06 340.784 231.258C340.952 231.437 341.082 231.607 341.174 231.766C341.741 231.864 342.307 231.962 342.874 232.06C343.473 232.14 344.075 232.207 344.681 232.261C345.57 232.365 346.455 232.481 347.337 232.609C348.245 232.744 349.101 232.92 349.906 233.136C350.258 233.23 350.594 233.334 350.915 233.446C351.235 233.559 351.527 233.678 351.79 233.802L352.096 234.167C352.131 234.339 352.195 234.504 352.287 234.663C352.404 234.829 352.521 234.996 352.639 235.162C352.866 235.52 353.081 235.927 353.281 236.386C353.482 236.844 353.447 237.428 353.176 238.137C352.894 238.385 352.696 238.52 352.582 238.544L352.121 238.905L351.754 238.767C351.603 238.726 351.458 238.714 351.318 238.731C351.186 238.722 351.05 238.726 350.911 238.743C350.797 238.766 350.683 238.79 350.568 238.813C350.461 238.811 350.341 238.806 350.209 238.797C349.982 238.737 349.794 238.686 349.643 238.646C349.524 238.587 349.389 238.537 349.238 238.497ZM343.888 255.14C343.741 254.885 343.654 254.606 343.628 254.302C343.626 254.005 343.486 253.725 343.206 253.461C343.257 253.071 343.296 252.623 343.323 252.118C343.383 251.594 343.429 251.068 343.464 250.538C343.53 249.989 343.605 249.457 343.689 248.94C343.806 248.405 343.959 247.934 344.149 247.527C344.26 247.314 344.393 247.12 344.547 246.946C344.727 246.778 344.891 246.62 345.039 246.471C345.218 246.303 345.36 246.126 345.465 245.938C345.594 245.757 345.66 245.559 345.664 245.344C345.822 245.36 345.93 245.308 345.989 245.189C346.08 245.051 346.219 245.035 346.407 245.139C346.731 244.633 347.058 244.168 347.387 243.744C347.716 243.32 348.055 242.911 348.403 242.519C348.75 242.127 349.098 241.735 349.446 241.343C349.825 240.932 350.193 240.465 350.549 239.94C350.23 239.423 350.03 238.911 349.95 238.405C349.902 237.88 349.892 237.365 349.919 236.86C349.946 236.355 349.999 235.857 350.077 235.365C350.161 234.849 350.196 234.319 350.179 233.775C350.603 233.403 351.065 233.136 351.567 232.974C352.075 232.787 352.605 232.672 353.155 232.631C353.737 232.572 354.344 232.572 354.974 232.633C355.612 232.669 356.29 232.703 357.01 232.734C358.318 232.68 359.477 232.681 360.487 232.736C361.504 232.765 362.482 232.839 363.421 232.956C364.367 233.047 365.344 233.174 366.352 233.336C367.367 233.474 368.546 233.601 369.889 233.718C369.894 233.8 369.922 233.848 369.972 233.862C370.047 233.882 370.136 233.905 370.236 233.932C370.264 234.129 370.379 234.254 370.58 234.308C370.601 234.232 370.605 234.166 370.593 234.109C370.613 234.034 370.63 233.971 370.644 233.92C370.694 233.934 370.754 233.963 370.822 234.009C370.916 234.061 370.985 234.106 371.029 234.145C371.097 234.19 371.16 234.207 371.217 234.195C371.281 234.158 371.317 234.074 371.326 233.941C371.486 234.55 371.758 235.095 372.141 235.575C372.532 236.03 372.983 236.461 373.494 236.868C373.458 237.101 373.414 237.264 373.362 237.358C373.335 237.459 373.296 237.556 373.244 237.65C373.198 237.719 373.159 237.816 373.125 237.942C373.098 238.042 373.083 238.2 373.079 238.415C372.495 238.986 371.888 239.39 371.258 239.625C370.654 239.868 370.036 240.012 369.403 240.058C368.771 240.105 368.114 240.09 367.433 240.016C366.778 239.948 366.093 239.886 365.38 239.83C364.699 239.755 363.992 239.727 363.259 239.747C362.526 239.766 361.779 239.889 361.017 240.116C360.836 239.987 360.654 239.911 360.471 239.889C360.32 239.849 360.15 239.83 359.96 239.833C359.771 239.836 359.556 239.833 359.316 239.822C359.101 239.819 358.85 239.751 358.562 239.62C358.313 239.742 358.04 239.804 357.744 239.805C357.472 239.814 357.187 239.818 356.891 239.82C356.942 240.13 356.918 240.42 356.819 240.69C356.745 240.967 356.719 241.216 356.74 241.437C357.77 241.821 358.939 242.134 360.249 242.378C361.566 242.596 362.847 242.844 364.093 243.124C364.085 243.257 364.048 243.342 363.985 243.378C363.921 243.415 363.872 243.497 363.838 243.622C364.024 243.834 364.188 244.08 364.328 244.36C364.469 244.64 364.609 244.921 364.75 245.201C364.922 245.463 365.102 245.7 365.287 245.911C365.48 246.098 365.731 246.219 366.039 246.275C366.098 246.56 366.115 246.848 366.091 247.138C366.067 247.428 365.952 247.707 365.745 247.975C365.155 248.167 364.573 248.376 364.001 248.6C363.435 248.799 362.851 248.966 362.249 249.101C361.672 249.243 361.058 249.321 360.407 249.335C359.756 249.349 359.082 249.25 358.384 249.036C358.258 249.002 358.145 248.972 358.045 248.945C357.969 248.925 357.882 248.847 357.783 248.713C357.498 248.771 357.145 248.731 356.724 248.591C356.335 248.433 355.985 248.38 355.675 248.431C355.356 248.211 354.958 248.037 354.48 247.909C354.028 247.788 353.642 247.617 353.323 247.397C352.695 247.929 352.082 248.507 351.485 249.128C350.893 249.725 350.339 250.385 349.821 251.109C350.812 251.536 351.651 251.828 352.337 251.985C353.023 252.142 353.677 252.264 354.301 252.35C354.925 252.436 355.562 252.526 356.211 252.619C356.885 252.719 357.684 252.906 358.608 253.18C359.318 253.047 360.089 253.038 360.921 253.153C361.784 253.25 362.599 253.279 363.364 253.241C363.595 253.384 363.769 253.592 363.884 253.866C364.006 254.114 364.112 254.372 364.203 254.639C364.325 254.887 364.454 255.111 364.589 255.309C364.725 255.507 364.938 255.618 365.228 255.642C365.32 255.801 365.355 255.972 365.333 256.155C365.336 256.345 365.33 256.518 365.315 256.676C365.325 256.84 365.354 256.983 365.402 257.104C365.458 257.199 365.589 257.262 365.797 257.29C365.056 258.143 364.313 258.753 363.568 259.12C362.848 259.493 362.07 259.729 361.235 259.829C360.431 259.91 359.544 259.901 358.573 259.803C357.633 259.686 356.571 259.577 355.385 259.475C355.095 259.451 354.856 259.387 354.668 259.282C354.512 259.16 354.334 259.072 354.132 259.018C353.394 258.955 352.518 258.855 351.503 258.718C350.514 258.587 349.532 258.378 348.558 258.09C347.583 257.802 346.674 257.423 345.829 256.954C344.984 256.485 344.337 255.881 343.888 255.14ZM375.23 257.553C374.99 257.543 374.79 257.637 374.629 257.837C374.474 258.011 374.316 258.198 374.155 258.397C374.019 258.604 373.873 258.794 373.719 258.968C373.596 259.124 373.447 259.178 373.271 259.131C373.192 259.326 373.069 259.482 372.903 259.599C372.762 259.723 372.617 259.859 372.47 260.008C372.328 260.132 372.206 260.288 372.102 260.476C372.004 260.639 371.972 260.859 372.005 261.138C371.764 261.235 371.58 261.415 371.456 261.678C371.332 261.941 371.198 262.188 371.055 262.42C370.937 262.658 370.779 262.845 370.581 262.98C370.383 263.116 370.086 263.117 369.691 262.984C369.588 263.065 369.559 263.124 369.602 263.163C369.646 263.201 369.66 263.3 369.645 263.457C369.382 263.333 369.164 263.288 368.993 263.323C368.84 263.39 368.66 263.409 368.452 263.38C368.015 263.101 367.683 262.729 367.457 262.264C367.256 261.806 367.091 261.317 366.961 260.797C366.862 260.258 366.776 259.723 366.703 259.191C366.655 258.666 366.59 258.204 366.509 257.805C366.658 257.548 366.742 257.287 366.759 257.022C366.783 256.732 366.755 256.482 366.677 256.272C368.61 253.987 370.704 251.555 372.958 248.978C375.213 246.4 377.381 243.841 379.464 241.298C379.982 241.68 380.478 242.096 380.95 242.546C381.454 242.977 381.882 243.443 382.234 243.941C382.611 244.447 382.896 244.995 383.088 245.585C383.287 246.151 383.356 246.749 383.294 247.38C383.204 247.517 383.124 247.563 383.055 247.518C383.018 247.454 382.965 247.453 382.894 247.515C382.961 247.668 382.988 247.769 382.974 247.82C382.986 247.877 382.973 247.927 382.934 247.971C382.92 248.021 382.9 248.096 382.873 248.197C382.853 248.272 382.86 248.396 382.895 248.567C382.802 248.515 382.723 248.507 382.659 248.544C382.62 248.588 382.545 248.567 382.433 248.483C382.459 248.787 382.424 249.02 382.326 249.183C382.254 249.352 382.16 249.502 382.044 249.633C381.935 249.738 381.831 249.872 381.734 250.035C381.643 250.172 381.602 250.377 381.61 250.649C381.534 250.629 381.465 250.637 381.401 250.674C381.369 250.692 381.334 250.723 381.295 250.767C381.263 250.785 381.215 250.813 381.151 250.85C381.12 250.868 381.069 250.855 381.001 250.809C380.928 251.383 380.805 251.943 380.631 252.49C380.458 253.036 380.281 253.595 380.101 254.167C379.952 254.721 379.807 255.315 379.663 255.951C379.527 256.561 379.446 257.214 379.422 257.908C380.469 257.622 381.368 257.135 382.119 256.447C382.894 255.765 383.584 254.952 384.187 254.009C384.816 253.072 385.376 252.036 385.869 250.901C386.362 249.765 386.874 248.609 387.406 247.43C387.693 247.264 387.943 247.035 388.157 246.741C388.37 246.448 388.574 246.139 388.769 245.814C388.971 245.463 389.169 245.126 389.364 244.8C389.566 244.45 389.783 244.144 390.014 243.883C390.378 244.034 390.659 244.244 390.857 244.513C391.086 244.763 391.284 245.032 391.45 245.319C391.622 245.581 391.807 245.846 392.005 246.114C392.209 246.358 392.493 246.555 392.857 246.707C393.044 247.215 393.21 247.704 393.353 248.174C393.497 248.644 393.546 249.116 393.5 249.589C393.32 249.756 393.159 249.956 393.016 250.187C392.899 250.425 392.768 250.66 392.625 250.891C392.483 251.122 392.318 251.334 392.132 251.527C391.952 251.695 391.729 251.823 391.462 251.914C391.211 252.547 390.949 253.124 390.675 253.644C390.432 254.145 390.178 254.643 389.91 255.138C389.668 255.639 389.432 256.169 389.201 256.727C388.978 257.26 388.787 257.87 388.631 258.556C388.274 259.08 387.895 259.639 387.494 260.233C387.092 260.826 386.758 261.37 386.49 261.865C386 262.084 385.581 262.389 385.234 262.781C384.886 263.174 384.526 263.562 384.153 263.948C384.025 264.021 383.956 264.03 383.944 263.973C383.932 263.916 383.854 263.854 383.71 263.789C383.708 263.896 383.688 263.971 383.649 264.015C383.611 264.059 383.56 264.099 383.496 264.136C383.464 264.154 383.425 264.198 383.38 264.266C383.36 264.342 383.358 264.449 383.374 264.588C382.982 264.645 382.61 264.775 382.259 264.977C381.908 265.18 381.539 265.35 381.152 265.489C380.789 265.635 380.371 265.684 379.898 265.639C379.45 265.599 378.908 265.36 378.271 264.919C377.442 263.888 376.756 262.775 376.214 261.578C375.697 260.388 375.369 259.046 375.23 257.553ZM408.795 262.988C408.737 263.107 408.681 263.214 408.629 263.308C408.584 263.376 408.538 263.445 408.493 263.514C408.447 263.583 408.408 263.68 408.374 263.806C408.347 263.906 408.31 264.045 408.263 264.221C407.151 265.352 405.895 266.215 404.496 266.81C403.121 267.413 401.648 267.881 400.075 268.214C398.535 268.529 396.945 268.777 395.306 268.958C393.674 269.114 392.066 269.33 390.482 269.607C389.919 269.294 389.521 268.918 389.288 268.478C389.081 268.045 388.949 267.578 388.895 267.079C388.872 266.56 388.897 266.014 388.97 265.441C389.074 264.849 389.182 264.244 389.294 263.627C389.443 263.37 389.605 263.171 389.778 263.028C389.983 262.868 390.132 262.611 390.226 262.259C390.603 261.659 390.976 261.071 391.346 260.496C391.716 259.922 392.013 259.314 392.239 258.673C392.368 258.492 392.544 258.391 392.765 258.369C393.214 257.196 393.541 255.976 393.746 254.709C393.982 253.425 394.094 252.201 394.082 251.039C394.175 250.794 394.247 250.625 394.299 250.531C394.383 250.418 394.407 250.33 394.37 250.267C394.399 250.059 394.489 249.975 394.64 250.015C394.816 250.062 394.992 250.11 395.168 250.157C395.269 249.779 395.294 249.382 395.245 248.964C395.22 248.553 395.209 248.092 395.211 247.58C395.488 247.25 395.699 246.916 395.844 246.577C395.995 246.213 396.196 245.916 396.446 245.687C397.69 246.479 398.847 247.341 399.918 248.275C401.014 249.216 402.129 249.986 403.262 250.587C403.992 251.483 404.748 252.387 405.528 253.297C406.316 254.182 406.995 255.119 407.566 256.107C408.143 257.071 408.565 258.114 408.83 259.237C409.096 260.359 409.084 261.61 408.795 262.988ZM399.297 262.667C399.879 262.608 400.452 262.532 401.016 262.441C401.605 262.356 402.15 262.232 402.652 262.07C403.186 261.89 403.679 261.658 404.132 261.375C404.586 261.092 404.996 260.717 405.364 260.249C405.294 259.907 405.164 259.589 404.973 259.295C404.789 258.976 404.598 258.682 404.4 258.414C404.209 258.12 404.018 257.826 403.827 257.532C403.662 257.245 403.547 256.918 403.484 256.55C403.17 256.412 402.905 256.247 402.687 256.054C402.476 255.835 402.261 255.63 402.043 255.437C401.857 255.225 401.643 255.019 401.4 254.819C401.182 254.626 400.9 254.47 400.555 254.35C400.076 253.925 399.627 253.589 399.208 253.342C398.814 253.102 398.53 252.851 398.358 252.589C398.182 252.542 398.033 252.542 397.913 252.591C397.908 253.614 397.854 254.57 397.751 255.459C397.654 256.323 397.491 257.182 397.262 258.038C397.065 258.874 396.798 259.72 396.461 260.573C396.125 261.426 395.73 262.345 395.278 263.329C395.536 263.372 395.776 263.382 395.997 263.36C396.251 263.321 396.492 263.277 396.72 263.23C396.973 263.191 397.223 263.163 397.47 263.148C397.748 263.115 398.054 263.13 398.388 263.192C398.504 263.062 398.638 262.963 398.791 262.896C398.969 262.836 399.138 262.759 399.297 262.667Z" fill="white"/>
<g clip-path="url(#clip0_5_62)">
<path d="M164.738 258.827L168.657 259.877L167.619 263.749L171.205 264.71L172.243 260.838L176.162 261.888L173.021 273.61L169.102 272.56L170.153 268.637L166.567 267.676L165.516 271.599L161.601 270.55L164.741 258.828L164.738 258.827ZM180.272 267.155L176.823 266.231L177.865 262.344L188.684 265.244L187.643 269.13L184.191 268.205L182.091 276.04L178.172 274.99L180.272 267.155ZM190.401 265.704L194.487 266.798L195.897 271.59L199.511 268.145L203.597 269.239L200.456 280.961L196.555 279.916L198.112 274.106L194.3 277.553L194.231 277.534L192.649 272.646L191.093 278.452L187.26 277.425L190.401 265.704ZM205.546 269.762L209.469 270.813L207.365 278.662L212.871 280.137L211.833 284.013L202.404 281.487L205.546 269.762Z" fill="#5454D4"/>
<path fill-rule="evenodd" clip-rule="evenodd" d="M143.192 338.744L152.625 273.894L217.825 291.365L193.568 352.234L166.474 352.467L143.192 338.744ZM167.398 308.348L168.811 300.263L198.314 308.168L201.067 300.645L162.455 290.298L158.286 314.172L185.007 321.332L181.434 331.089L172.212 331.111L172.204 331.109L164.241 326.49L165.337 320.196L157.593 318.121L155.429 330.515L170.047 339.13L187.04 338.986L194.755 317.899L195.498 315.881L167.397 308.352L167.398 308.348Z" fill="#5454D4"/>
</g>
<g clip-path="url(#clip1_5_62)">
<path d="M291.734 292.855L301.072 295.358L300.025 299.262L294.592 297.806L293.546 301.711L298.979 303.167L297.933 307.072L288.595 304.57L291.734 292.855ZM302.937 295.857L312.279 298.361L311.368 301.758L305.935 300.302L305.754 300.98L311.187 302.436L309.094 310.245L299.753 307.742L300.708 304.178L306.141 305.634L306.323 304.953L300.89 303.497L302.937 295.857ZM314.148 298.861L323.482 301.363L322.572 304.76L317.139 303.304L316.957 303.982L322.39 305.438L320.298 313.247L310.963 310.746L311.918 307.182L317.352 308.637L317.534 307.956L312.101 306.501L314.148 298.861Z" fill="#F04037"/>
<path fill-rule="evenodd" clip-rule="evenodd" d="M284.7 384.146L261.419 370.422L270.848 305.572L336.048 323.042L311.795 383.913L284.7 384.146ZM277.882 337.956L276.509 345.85L303.23 353.009L299.657 362.767L290.434 362.788L290.427 362.786L282.464 358.168L283.56 351.873L275.819 349.799L273.655 362.194L288.274 370.809L305.266 370.664L312.982 349.578L313.724 347.56L319.297 332.324L280.677 321.976L279.314 329.876L308.784 337.773L305.965 345.481L277.882 337.956Z" fill="#F04037"/>
</g>
<g clip-path="url(#clip2_5_62)">
<path fill-rule="evenodd" clip-rule="evenodd" d="M382.782 317.252L469.716 340.546L446.422 427.479L359.489 404.185L382.782 317.252ZM429.711 407.938C425.68 406.858 423.964 404.147 422.982 400.816L415.309 402.895C416.437 408.275 420.369 413.203 427.958 415.237C435.717 417.316 442.573 414.836 444.544 407.479C446.372 400.658 443.265 396.576 437.124 391.736L435.315 390.315C432.216 387.855 430.963 386.459 431.62 384.007C432.151 382.025 434.079 380.915 436.47 381.556C438.814 382.184 440.059 383.577 440.788 386.463L448.243 384.085C446.82 378.63 443.573 375.823 438.379 374.431C431.084 372.476 425.165 375.891 423.523 382.019C421.742 388.666 424.81 392.862 430.035 396.952L431.843 398.376C435.133 401.005 437.088 402.593 436.337 405.393C435.71 407.733 433.095 408.845 429.711 407.938ZM398.068 399.401C395.261 398.649 394.605 396.416 393.934 393.79L386.205 396.036C387.039 400.631 389.921 405.029 396.459 406.781C403.7 408.721 409.69 406.2 411.957 397.742L419.43 369.851L411.262 367.662L403.818 395.444C402.724 399.527 400.748 400.119 398.064 399.4L398.068 399.401Z" fill="#FEDC5A"/>
</g>
<g opacity="0.7" clip-path="url(#clip3_5_62)">
<path d="M280.438 424.122C280.525 423.983 280.584 423.828 280.612 423.666C280.639 423.504 280.634 423.339 280.597 423.179C280.561 423.018 280.493 422.867 280.398 422.733C280.303 422.6 280.182 422.486 280.043 422.399C279.904 422.311 279.749 422.252 279.587 422.225C279.425 422.198 279.26 422.202 279.1 422.239C278.94 422.276 278.788 422.344 278.654 422.439C278.521 422.534 278.407 422.654 278.32 422.793L260.249 451.598C260.073 451.879 260.015 452.218 260.089 452.541C260.163 452.865 260.363 453.145 260.644 453.321C260.925 453.498 261.264 453.555 261.587 453.481C261.91 453.407 262.191 453.207 262.367 452.926L280.438 424.122ZM265.24 426.518C265.322 426.66 265.376 426.817 265.398 426.98C265.419 427.143 265.408 427.309 265.366 427.468C265.323 427.626 265.25 427.775 265.15 427.906C265.049 428.036 264.924 428.145 264.782 428.227L255.147 433.788L260.711 443.421C260.877 443.709 260.922 444.05 260.836 444.371C260.75 444.692 260.54 444.965 260.253 445.131C259.965 445.297 259.624 445.342 259.303 445.256C258.982 445.17 258.709 444.96 258.543 444.673L252.356 433.956C252.273 433.814 252.22 433.657 252.198 433.494C252.177 433.331 252.188 433.165 252.23 433.007C252.273 432.848 252.346 432.699 252.446 432.568C252.546 432.438 252.671 432.329 252.814 432.247L263.53 426.06C263.673 425.977 263.83 425.924 263.993 425.902C264.156 425.881 264.321 425.891 264.48 425.934C264.639 425.976 264.788 426.05 264.918 426.15C265.049 426.25 265.158 426.375 265.24 426.518ZM280.434 430.589C280.292 430.671 280.167 430.78 280.066 430.911C279.966 431.041 279.893 431.19 279.85 431.349C279.808 431.507 279.797 431.673 279.818 431.836C279.84 431.999 279.894 432.156 279.976 432.299L285.54 441.932L275.905 447.493C275.762 447.575 275.638 447.684 275.538 447.815C275.438 447.945 275.364 448.094 275.322 448.253C275.279 448.411 275.268 448.577 275.29 448.74C275.311 448.903 275.364 449.06 275.447 449.202C275.529 449.345 275.638 449.469 275.769 449.569C275.899 449.669 276.048 449.743 276.207 449.785C276.365 449.828 276.531 449.839 276.694 449.817C276.857 449.796 277.014 449.743 277.156 449.66L287.873 443.473C288.015 443.391 288.14 443.282 288.24 443.151C288.341 443.021 288.414 442.872 288.457 442.713C288.499 442.555 288.51 442.389 288.488 442.226C288.467 442.063 288.413 441.906 288.331 441.764L282.144 431.047C282.062 430.904 281.952 430.78 281.822 430.679C281.692 430.579 281.543 430.506 281.384 430.463C281.225 430.421 281.059 430.41 280.896 430.431C280.733 430.453 280.576 430.506 280.434 430.589Z" fill="white"/>
</g>
<rect x="-1.41423" y="-2.44951" width="378.786" height="378.8" rx="24" transform="matrix(0.965923 0.258829 -0.258809 0.965928 175.303 66.2475)" stroke="#BCBCBC" stroke-width="4"/>
<g opacity="0.5">
<path d="M562.118 524.608H564.078V520.686H562.139C561.535 520.675 556.235 520.347 556.235 512.843C556.235 508.935 554.931 506.478 553.29 505C554.931 503.522 556.235 501.065 556.235 497.157C556.235 489.653 561.535 489.325 562.118 489.314H564.078V485.392H562.114C558.724 485.4 552.314 487.871 552.314 497.157C552.314 502.647 549.024 503.02 548.365 503.039L548.392 506.961C548.553 506.961 552.314 507.027 552.314 512.843C552.314 522.129 558.724 524.6 562.118 524.608ZM587.608 503.039C587.447 503.039 583.686 502.973 583.686 497.157C583.686 487.871 577.277 485.4 573.882 485.392H571.922V489.314H573.861C574.465 489.325 579.765 489.653 579.765 497.157C579.765 501.065 581.069 503.522 582.71 505C581.069 506.478 579.765 508.935 579.765 512.843C579.765 520.347 574.465 520.675 573.882 520.686H571.922V524.608H573.886C577.277 524.6 583.686 522.129 583.686 512.843C583.686 507.353 586.977 506.98 587.635 506.961L587.608 503.039Z" fill="#5454D4"/>
</g>
<g opacity="0.5" clip-path="url(#clip4_5_62)">
<path d="M38.5813 489.31L30.3525 485.351C29.8871 485.126 29.363 485.051 28.8531 485.137C28.3432 485.223 27.8729 485.466 27.5075 485.832L11.7463 500.214L4.8775 495.005C4.56816 494.768 4.18562 494.648 3.79659 494.665C3.40756 494.681 3.03672 494.834 2.74875 495.096L0.548752 497.101C0.3768 497.257 0.239237 497.446 0.144893 497.658C0.0505494 497.87 0.00150942 498.099 0.000920888 498.33C0.000332361 498.562 0.0482083 498.792 0.141476 499.004C0.234743 499.216 0.371341 499.406 0.542502 499.562L6.5 504.999L0.542502 510.435C0.371341 510.591 0.234743 510.782 0.141476 510.994C0.0482083 511.206 0.000332361 511.435 0.000920888 511.667C0.00150942 511.899 0.0505494 512.128 0.144893 512.34C0.239237 512.551 0.3768 512.741 0.548752 512.896L2.74875 514.901C3.03672 515.163 3.40756 515.316 3.79659 515.333C4.18562 515.349 4.56816 515.229 4.8775 514.992L11.7463 509.777L27.515 524.165C27.8791 524.531 28.3484 524.774 28.8573 524.86C29.3662 524.947 29.8894 524.872 30.3538 524.646L38.59 520.681C39.0141 520.477 39.3719 520.158 39.6219 519.759C39.8718 519.361 40.0038 518.899 40.0025 518.429V491.56C40.0025 490.602 39.4488 489.724 38.5838 489.307L38.5813 489.31ZM30.0063 514.082L18.04 505L30.0063 495.917V514.082Z" fill="#5454D4"/>
</g>
<g opacity="0.5">
<path d="M548 0V40H588V0H548ZM577.815 4.815C580.222 4.815 582.26 5.555 583.927 6.945L582.075 9.72333C580.593 8.705 579.205 8.05667 577.815 8.05667C576.425 8.05667 575.685 8.705 575.685 9.53833V9.63167C575.685 10.7433 576.425 11.1133 579.203 11.8533C582.537 12.78 584.388 13.9833 584.388 16.8533V16.9467C584.388 20.28 581.888 22.1317 578.37 22.1317C575.87 22.0383 573.37 21.1133 571.425 19.3533L573.555 16.76C575.037 17.9633 576.61 18.7967 578.462 18.7967C579.943 18.7967 580.777 18.2417 580.777 17.2233V17.13C580.777 16.2033 580.222 15.7417 577.443 15C574.11 14.1667 572.073 13.24 572.073 9.90667V9.81333C572.073 6.75833 574.48 4.81333 577.813 4.81333L577.815 4.815ZM550.963 5.185H554.76L557.26 14.815L560.13 5.185H562.908L565.687 14.815L568.187 5.185H572.075L567.353 21.7583H564.205L561.52 12.1283L558.742 21.7583H555.687L550.965 5.185H550.963ZM551.797 32.5H566.797V35H551.797V32.5Z" fill="#5454D4"/>
</g>
<defs>
<clipPath id="clip0_5_62">
<rect width="90" height="90" fill="white" transform="translate(146.337 253.897) rotate(15)"/>
</clipPath>
<clipPath id="clip1_5_62">
<rect width="90" height="90" fill="white" transform="translate(264.56 285.574) rotate(15)"/>
</clipPath>
<clipPath id="clip2_5_62">
<rect width="90" height="90" fill="white" transform="translate(382.782 317.252) rotate(15)"/>
</clipPath>
<clipPath id="clip3_5_62">
<rect width="40" height="40" fill="white" transform="translate(256.201 413.365) rotate(15)"/>
</clipPath>
<clipPath id="clip4_5_62">
<rect width="40" height="40" fill="white" transform="translate(0 485)"/>
</clipPath>
</defs>
</svg>
